<svg data-v-79cd3a02="" viewBox="-100 -100 200 200" xmlns="http://www.w3.org/2000/svg" width="500" height="500" id="face-svg"><defs data-v-79cd3a02=""><clipPath data-v-79cd3a02="" id="leftEyeClipPath"><polyline data-v-79cd3a02="" points="24.04078628650828,-5.041597415666179,23.67096601767725,-5.105789791236624,23.275266386186118,-5.166353744716359,22.855281965639875,-5.22345641125039,22.412552531000614,-5.277259298290163,21.948563972306623,-5.327918384411371,21.46474920839148,-5.375584218131752,20.962489100603193,-5.420402016728896,20.443113366523292,-5.462511765058047,19.90790149368594,-5.502048314369911,19.358083653297065,-5.539141481128453,18.794841613953416,-5.573916145828709,18.219309655361755,-5.606492351814581,17.632575482057888,-5.636985404096649,17.035681137125827,-5.6655059681699695,16.429623915916885,-5.692160168831882,15.702057765854589,-5.717341891366199,14.965163195622674,-5.740937898548866,14.22032107400272,-5.763025612222789,13.468856382743846,-5.783672379550259,12.712041175889691,-5.802935385158255,11.951097346781458,-5.820861613580739,11.187199208165067,-5.837487860363004,10.421475890830402,-5.852840790193187,9.65501356621068,-5.866937040425967,8.888857498369976,-5.879783368363581,8.1240139308069,-5.89137684065919,7.36145181350246,-5.901705063207686,6.602104375640131,-5.91074644988902,5.846870549426134,-5.9184705285291175,5.096616250437928,-5.9248382824434564,4.35217551992901,-5.9298025259283875,3.61435153451792,-5.933308312065269,2.8839174886895917,-5.935293371202489,2.161617355536978,-5.935688578480457,1.4481665311710072,-5.934418448764626,0.7442523682269027,-5.931401657351641,0.050534603894824226,-5.926551584813662,-0.6323543120970623,-5.919776884345965,-1.3038089841191498,-5.910982069982874,-1.9632509264685414,-5.900068124047107,-2.6101285029607277,-5.88693312219761,-3.2439169448568705,-5.871472874440964,-3.864118441698561,-5.8535815804714115,-4.470262299622128,-5.833152497704617,-5.061905161724413,-5.810078620370205,-5.638631285052044,-5.784253368028153,-6.200052868786139,-5.755571281874145,-6.745810428194474,-5.723928727198915,-7.275573208923053,-5.689224600366691,-7.7890396361990994,-5.651361038677796,-8.2859377935174,-5.61024413148049,-8.766025925382054,-5.565784630897126,-9.229092958675544,-5.517898660529684,-9.674959037227147,-5.4665084205097765,-10.103476064152641,-5.4115428872581885,-10.514528246537347,-5.3529385063190285,-10.90803263703439,-5.290639876633561,-11.28393966695026,-5.2246004246188145,-11.642233665389593,-5.154783066416012,-11.982933359031186,-5.081160856673919,-12.306092347107198,-5.003717622232178,-12.611799546157547,-4.9224485790697035,-12.900179599131489,-4.837360930883212,-13.171393243408287,-4.748474447660965,-13.42563763230911,-4.655822022616796,-13.663567484223142,-4.559167928273604,-13.88563608464719,-4.4582143600324935,-14.091775401371534,-4.352915190369369,-14.281930629793118,-4.243229706778288,-14.456060919882256,-4.129122830734653,-14.614140103149301,-4.010565336658385,-14.756157419611421,-3.887534070877124,-14.882118244759281,-3.760012170589396,-14.992044816523736,-3.6279892828278126,-15.085976962242599,-3.4914617834222517,-15.163972825627289,-3.3504329959630397,-15.22610959372962,-3.2049134107641404,-15.272484223908423,-3.0549209038263383,-15.303214170796343,-2.9004809558004245,-15.25666196211017,-1.4086808756878382,-14.982310953559717,-1.1954131262221406,-14.696868769281489,-0.9793262011293518,-14.400494199873068,-0.7606310720779925,-14.093372830228143,-0.5395593277980328,-13.775714989691297,-0.31636237721803706,-13.447753702212877,-0.09131065260229221,-13.109742636503809,0.13530718731203883,-12.761954056190435,0.36318505417778546,-12.40467676996934,0.5920002269006321,-12.03821408176219,0.8214141485019599,-11.662881740870558,1.0510732229817314,-11.279005892130751,1.280609612181327,-10.886921026068658,1.5096420326464193,-10.486967929054561,1.7377765524898292,-10.07757840698281,1.9659481395458203,-9.657334713404657,2.1948768517400206,-9.226798926395114,2.423822222130842,-8.786520938715663,2.652025885006389,-8.337036363337585,2.8787145109029444,-7.878864473169049,3.1031027827321678,-7.412506190291383,3.3243964070671206,-6.938442140010107,3.541795154637149,-6.4571307850262,3.7544959240817812,-5.969006655033089,3.961695823013664,-5.474478687044957,4.162595260440697,-4.973928691761776,4.356401044597379,-4.4677099612766416,4.542329480235556,-3.9561460334309198,4.71960945942453,-3.43952962812266,4.887485539910776,-2.9181217708738627,5.045221005087211,-2.392151118962053,5.1921008996222,-1.8618135054216918,5.327435034798342,-1.3272717162209453,5.45056095761118,-0.7886555159192996,5.560846877677846,-0.24606193711156132,5.657694546005801,0.30044415103628364,5.740542079671729,0.8508291798538017,5.808866726460683,1.405089708529959,5.862187563515577,1.9632509264685412,5.900068124047107,2.525364815329662,5.922118946154183,3.0915079554518385,5.928000037804991,3.661778961349124,5.917423252028752,4.2362955309777774,5.890154566368293,4.81519109346698,5.846016260643464,5.398611040008078,5.784888987075569,5.986708522596821,5.706713726822854,6.579639805323134,5.6114936269771265,7.177559152902856,5.4992957120716826,7.780613241145977,5.370252464150497,8.38893507405584,5.224563265448913,9.002637392253813,5.062495697735787,9.621805557423897,4.884386692367314,10.246489897471788,4.690643525102488,10.876697497092863,4.4817446497304045,11.51238341844359,4.258240364559414,12.153441336610848,4.020753305818261,12.799693574573622,3.769978762019293,13.450880522351621,3.5066848033338127,14.106649425035247,3.2317122200296717,14.766542524391438,2.9459742640212285,15.429984538739886,2.650456187581697,16.096269465794045,2.346214573268031,16.76454669316155,2.034376449108419,17.43380640119839,1.7161381831024674,17.95446413131814,1.4782261335737195,18.470227942873393,1.2364597332242626,18.9802484153429,0.99141960156211,19.483609453236205,0.7437140657697485,19.979326257714447,0.49397959964882965,20.466343298211115,0.2428812625648824,20.943532284052907,-0.008886861607993346,21.40969013608047,-0.2606012255424277,21.86353695826923,-0.5115083795130762,22.303714009350188,-0.760824532451922,22.728781674430707,-1.0077351130035765,23.137217436615316,-1.2513943305805784,23.5274138486265,-1.4909247364186937,23.89767650442552,-1.7254167846322108,24.246222010833172,-1.9539283932692495"></polyline></clipPath><clipPath data-v-79cd3a02="" id="rightEyeClipPath"><polyline data-v-79cd3a02="" points="-24.717929630461686,-5.158150787639067,-24.337422850479513,-5.195793588042273,-23.93108742141111,-5.231429073714566,-23.50035875321807,-5.2651443550432635,-23.046631602347194,-5.297023660344894,-22.57126058291697,-5.327148386577503,-22.07556067790407,-5.3555971500529616,-21.56080775032981,-5.382445837149274,-21.028239054446694,-5.407767655022888,-20.47905374692483,-5.431633182320998,-19.914413398038473,-5.454110419893855,-19.33544250285247,-5.4752648415070775,-18.74322899240878,-5.4951594445539556,-18.138824744912935,-5.513854800767758,-17.52324609692054,-5.531409106934046,-16.897474354523766,-5.547878235602973,-16.163746727678213,-5.5641235700339085,-15.417548658774134,-5.579412461731925,-14.66028840109595,-5.593778275409986,-13.893357447910105,-5.607247618131395,-13.118129919845718,-5.619840152605735,-12.335961895822386,-5.631568459051548,-11.548190690628275,-5.6424379440901955,-10.756134082251391,-5.652446795135338,-9.961089492067124,-5.66158597874245,-9.164333120985056,-5.669839281382813,-8.367119044658024,-5.677183391106409,-7.570678270856497,-5.683588018558157,-6.776217762111255,-5.689016055811913,-5.98491942672736,-5.693423771486665,-5.197939081272484,-5.696761040609362,-4.416405387642566,-5.698971607688801,-3.641418767807844,-5.699993381465012,-2.8740502993422377,-5.699758759798548,-2.115340594839136,-5.698194983164151,-1.3662986683165723,-5.695224515213186,-0.6279007917148256,-5.6907654488693,0.09891065541057209,-5.684731936421718,0.8132283398973605,-5.67703464208063,1.5141811295836405,-5.667581215459075,2.200935245410494,-5.656276784445772,2.8726954079171048,-5.643024465933318,3.5287059750253977,-5.627725892866191,4.16825206801117,-5.610281756072983,4.790660682558696,-5.590592359347301,5.395301781795774,-5.568558186241758,5.981589368206261,-5.544080477039499,6.548982531317004,-5.517061814367669,7.096986468056227,-5.487406715917291,7.6251534726802825,-5.455022232733942,8.13308389316586,-5.419818551543694,8.620427050964487,-5.381709599578729,9.086882121016483,-5.3406136503670725,9.532198968921211,-5.296453928950865,9.956178942160701,-5.249159214997612,10.358675612273554,-5.198664442268839,10.739595464876217,-5.144911292910582,11.098898534428482,-5.087848785030145,11.436598980640358,-5.027433852023566,11.75276560341712,-4.963631912118197,12.047522293239691,-4.896417426594862,12.321048413877207,-4.825774445153992,12.573579114328844,-4.7516971368901935,12.805405566891874,-4.674190305339669,13.016875128252842,-4.593269886064925,13.208391420499066,-4.508963425241182,13.380341626166231,-4.4210584442185095,13.532795829052464,-4.329287507178745,13.66573715375797,-4.233608214041592,13.779166316457559,-4.133983001975548,13.873102040482856,-4.030379351054461,13.947581471904446,-3.9227699899140793,14.002660595114147,-3.811133101408614,14.03841464840717,-3.695452528267279,14.054938539564326,-3.575717978750861,14.052347261434246,-3.451925232308263,14.030776307515556,-3.324076345233061,13.990382087539114,-3.192179856320061,13.931342343050162,-3.0562509925218477,13.853856562990583,-2.916311874605343,13.722614823949407,-1.2320070560653376,13.316926323969867,-1.0264666279473111,12.905055867616149,-0.818303234397856,12.487536679867748,-0.6077316233486094,12.064937876198382,-0.3949867754328338,11.637860013260127,-0.18032305115495273,11.206930639567556,0.035986661939923614,10.772799846181844,0.2536518020964671,10.336135817394943,0.4723649861795982,9.897620381413649,0.6918028625049644,9.457944561043789,0.911626963669395,9.017804124374322,1.131484559381386,8.577895135461478,1.351009509291556,8.13890950501288,1.5698231158231266,7.701530541071679,1.7875349770023883,7.263003115813121,2.005076053376068,6.821195163546672,2.2231561067298005,6.377640927630179,2.4410322830888926,5.933771675847226,2.6579475047602923,5.4909113452116225,2.8731333691855223,5.050272379776881,3.085813082016868,4.6129517946721,3.2952044180489217,4.1799274995859586,3.50052270363771,3.752054914920241,3.7009838142396223,3.330063913834561,3.895807180702322,2.9145561234037896,4.084218797939847,2.506002618109755,4.265454229624078,2.1047420388887756,4.43876160252481,1.7109791709565698,4.603404584130587,1.3247840136321347,4.758665337182547,0.9460913753821227,4.903847444753415,0.5747010273072757,5.0382787995039156,0.21027844829250064,5.161314450748694,-0.14764380495789586,5.2723394029641195,-0.4996640697782051,5.370771359369963,-0.8465088580710356,5.456063404217337,-1.1890294122871659,5.527706617414948,-1.5281975036339808,5.585232615125953,-1.8651004392909392,5.628216009967588,-2.2009352454104945,5.656276784445772,-2.537001992682937,5.669082571256883,-2.8746962312435786,5.6663508340888935,-3.215500501700739,5.647850942554088,-3.560974889062945,5.613406134885551,-3.9127465863438182,5.56289536202963,-4.272498434623083,5.496255006766541,-4.641956406342116,5.413480471491381,-5.022875998612503,5.314627628287665,-5.41702750331604,5.199814124925675,-5.826180120774605,5.069220540417714,-6.252084883768368,4.923091383762609,-6.6964563586807415,4.761735929511465,-7.160953090548571,4.585528883787111,-7.647156758795944,4.394910874389177,-8.15655001043009,4.190388758617258,-8.690492937477842,3.9725357424441246,-9.250198165441034,3.741991304671375,-9.836704519549325,3.4994609196995956,-10.45084923558888,3.245715572545322,-11.09323868208535,2.9815910597369033,-11.764217560619592,2.707987069721577,-12.463836551054559,2.4258660364158597,-13.191818368451802,2.136251759531512,-13.947522198456078,1.8402277853092466,-14.729906477926402,1.5389355412923962,-15.256817525790538,1.3107384296695876,-15.79100982895828,1.0792284025879866,-16.33159829764389,0.8449570190012459,-16.87757176503872,0.6085001533683592,-17.427788514914347,0.3704583275311819,-17.980971809225736,0.13145704259197366,-18.535705415714368,-0.10785288920905778,-19.09042913551139,-0.3467950126162247,-19.64343433074074,-0.5846668974808278,-20.192859452122327,-0.8207398068836085,-20.73668556657515,-1.0542583652572182,-21.27273188482045,-1.2844402265086803,-21.79865128898484,-1.5104757421418515,-22.311925860203466,-1.7315276293798867,-22.809862406223132,-1.9467306392876975"></polyline></clipPath><filter data-v-79cd3a02="" id="fuzzy"><feTurbulence data-v-79cd3a02="" id="turbulence" baseFrequency="0.05" numOctaves="3" type="noise" result="noise"></feTurbulence><feDisplacementMap data-v-79cd3a02="" in="SourceGraphic" in2="noise" scale="2"></feDisplacementMap></filter><linearGradient data-v-79cd3a02="" id="rainbowGradient" x1="0%" y1="0%" x2="100%" y2="0%"><stop data-v-79cd3a02="" offset="0%" style="stop-color: rgb(44, 34, 43); stop-opacity: 1;"></stop><stop data-v-79cd3a02="" offset="81.87732939263073%" style="stop-color: rgb(127, 255, 0); stop-opacity: 1;"></stop><stop data-v-79cd3a02="" offset="100%" style="stop-color: rgb(192, 192, 192); stop-opacity: 1;"></stop></linearGradient></defs><title data-v-79cd3a02="">That's an ugly face</title><desc data-v-79cd3a02="">CREATED BY XUAN TANG, MORE INFO AT TXSTC55.GITHUB.IO</desc><rect data-v-79cd3a02="" x="-100" y="-100" width="100%" height="100%" fill="rgb(244, 164, 96)"></rect><polyline data-v-79cd3a02="" id="faceContour" points="58.949737555992435,-0.5326741816301608,58.8221273548565,2.4766268244458036,59.019572824993354,3.6901824761591815,58.660229834482884,4.383373268268027,58.92213513704923,3.4028125891814156,58.707999893620034,6.916161613489741,58.544636095112885,6.290066867559731,58.32166970045851,9.857014920347442,58.69742756952592,8.297297744902302,58.340599382223836,11.25630379459729,58.328801394169005,11.270837170086956,57.893158404235166,13.785808883299271,57.27172733918156,15.974873402953861,57.32367117873206,15.864067094017017,57.33891162845021,16.859210115188503,57.20862264579507,17.76115564490187,56.77658557675845,20.154197373825134,56.147288522598274,21.8544116025631,56.37652617003147,21.90588919137256,55.87845762235957,22.87706085076837,55.17931301887577,25.54650214725626,55.18956223031794,26.458964536531496,55.40298869802391,25.24815875572079,55.00062250961406,27.335513245210766,54.19565365926299,28.78522334666034,54.309154802834975,29.384072527790494,53.57374615420685,31.162124365052122,53.743950963779774,31.2026971315181,52.77768821287235,34.23241103327322,51.9591674067609,36.24876354399507,51.88507253471067,35.66260362522574,50.81619524911176,38.81537079572661,50.56093596705809,39.62954917558913,50.29620007920058,39.39030845875498,50.02343809303893,40.08238822529759,49.79984786274536,41.17120377865405,49.06092555744531,42.39495603871032,48.00542339090806,44.810498895291154,48.401472454970936,43.551602718750765,46.87423442689152,46.55621418078505,47.720140828428995,45.28724218475459,46.437966019767586,47.07086467244687,45.254248533148434,49.016706386244465,45.94175727152967,48.10725194039264,45.32474270837502,49.04983918282894,44.64772872127027,50.52398945826212,44.09553024508107,51.48157375258886,42.92797880468941,53.32686390133415,42.23816121009773,53.894445646185076,41.81084027170135,54.56833841044773,40.81569074062596,55.39297516591172,40.88036277025904,55.635282832900316,39.21814373963405,58.14056406187771,38.12290004167153,59.210642639972065,37.59564735085862,59.87256330721553,36.235839179972,61.17727415292886,36.558328609991655,61.08527097285424,36.24416629260305,61.485219033540815,34.59985219093448,62.98030142502917,34.66452576009551,62.72666096514201,33.30719385714458,64.07803503475874,33.38230114996454,63.723923535892055,32.16931687843891,65.10567293182248,31.80179150573307,65.5530460480829,29.848758898731678,67.11055314555364,29.959694361856034,66.96794287559844,29.038055215360007,67.52329915755666,28.787469313213567,67.9590982039472,27.359756854152607,69.04747503329135,27.20264032255691,68.93577349975001,25.76635815075645,69.70138013403495,24.013216771171937,70.83078069435875,23.737122267250687,71.09402928544914,23.178610370511866,71.36639757343377,22.065877817661924,71.92217211038397,21.30471371260368,72.42090112172326,20.5956910675956,72.74231240774083,19.94670586774391,73.00899528255776,20.488723638235484,72.70463690155701,19.396692849123795,73.4009874868399,17.87683595432382,73.63995398703479,16.30185949267799,74.40983651356572,15.595997078226464,74.8509488688942,14.709700255841838,75.21868711792294,13.655193414402241,75.37709427357346,14.061903409906034,75.24667541418069,13.425385427006315,75.40706850057808,10.847590226448874,75.987076727278,10.776664760090897,76.10054359633378,10.107142922949297,76.18012738283953,9.2127411341006,76.5468434294946,7.245302989177678,76.65314886362663,7.513946717176881,76.62234241736833,6.367997677465761,76.70652666795586,5.9416569653711,76.6360153777647,4.479968237981323,76.84472263938252,2.9277437278515657,76.91627959851098,3.1310491728777317,77.04512825613351,0.3255545735409511,77.05705308419878,0.8218564109376088,76.96041394586925,0.1477304856551105,77.06433979178611,-1.0715746789510758,76.85513596389231,-1.4905855483659138,76.97290198280413,-2.5686273397247144,76.85026440807806,-3.027229387228629,76.63334016215714,-4.235921712420143,76.61167704321991,-5.7820580535701085,76.38871846572435,-5.75927807415527,76.22633968392422,-8.33806304311367,75.87181666961305,-7.2996104932813575,75.94240484646613,-8.565945247775325,75.80421924569572,-8.837181140610848,75.68443779198708,-10.46967570040589,75.32879997070079,-11.346880509391461,74.83980034086366,-13.613853182263874,74.19764577367003,-13.992036608156091,74.14381427314935,-14.72862810076995,73.70495752886676,-16.005000240645288,73.18467873687712,-15.300085885523973,73.58740877357997,-17.233626253034128,72.73580783332041,-17.32051950068546,72.80671394549358,-17.513472190126162,72.52896561075026,-19.026797260264228,71.81536232465119,-21.403919144248523,70.57405139234864,-21.162400915138118,70.92315220272043,-20.999003564583983,70.97054188101531,-22.422878510810616,70.02084993350182,-24.20924159052605,68.83872031160506,-23.8884822732615,69.08327696452878,-25.421682207981508,68.08575243678996,-25.936863076119973,67.49613895485876,-26.951242125071172,66.89798312439783,-27.606469812625594,66.33120286783978,-29.124639459639685,65.49884130673887,-28.72601659640016,65.62416971169267,-29.874224979710856,64.9865159621683,-32.096578983173885,62.97471231091969,-30.52533569045367,64.13919667087559,-31.591353887791133,63.20633434177973,-32.95064294996563,62.05116368413743,-33.616321470180374,61.21416300424536,-35.09470807272488,60.04093803622165,-35.432020687891345,59.52655205818325,-35.534051374176514,59.38640002032073,-36.432824618734195,58.616883836580286,-37.77297159542693,57.210906444459056,-38.23407971785327,56.63375910574653,-38.43448119775103,56.19798105630135,-40.67808703143197,53.65803653605646,-40.77723593375494,53.541192903792876,-41.26902665438305,52.67181923458375,-42.02621714931871,51.69279408053859,-43.09006356789704,50.53530392793245,-42.6178761934924,51.01715173275358,-43.086713623291615,50.607354626160785,-44.21221972130703,48.82880254760495,-44.43464190348589,48.49047096939063,-45.269541821129806,46.816856525808646,-46.28478448002972,45.48173897641901,-46.48489607247999,44.975794898677414,-47.19864646808207,43.545967129420276,-46.71122817968422,44.5247654903628,-48.133912957338076,41.65433377988574,-48.113382259672804,41.98131297944903,-48.76362869280038,40.88900727151908,-49.55890166875286,39.151771684513335,-49.27078060548189,39.43358780340697,-51.02378648908638,36.22841960863634,-50.668509871161824,36.71470607281521,-51.84316044197404,34.310743632902856,-52.318702569550446,33.30299032969479,-52.22525499069212,33.011138287049164,-52.326684912611604,33.073572610587334,-53.151764867343296,30.276504353170022,-54.003150180878414,28.816568502421575,-53.46774656617519,29.932614431454308,-54.152384758890044,27.571488737017713,-54.66008150003915,25.711321184808078,-55.355010720688846,23.863169700980755,-55.34456582862084,24.15784410102514,-55.51184799027519,22.88410310142118,-56.087096712096816,20.806298411092662,-56.39043340311007,20.14115144382942,-56.13805000753042,20.70432895392357,-56.37256914461331,20.091316730313668,-57.135925711297276,16.67651938889718,-56.96786994125194,16.85472007470058,-57.3528680247595,14.781830854885804,-57.59462912162707,14.96885132932632,-57.952207896413775,12.562830586710923,-58.069038581993745,11.353894062418828,-58.53249230823497,8.93785409429469,-58.30531970898988,8.64291197042767,-58.50415403223834,9.066752267106844,-58.68456981377925,6.740321146445647,-58.91948985486491,5.513770822933584,-58.83617906530147,4.711045390311471,-58.929257629000865,3.750004359721876,-59.1082025152561,1.4445248548892478,-58.94647547142829,3.029113297634231,-58.96096143624171,0.6766211202855432,-59.023504068898134,-1.927704777596511,-59.07972117810123,-3.0263773417782156,-59.196768362895156,-3.5781631016708397,-59.17317963700989,-4.904511578502633,-59.07615961022473,-5.165161485238415,-59.13677880228962,-6.282597416231632,-58.90655662955202,-7.543290716660386,-58.870724570604494,-10.766946863212201,-58.94844664270017,-9.068659361082275,-58.75441072787064,-11.470141643200556,-58.62825535141902,-13.319208025542292,-58.52876640678214,-13.42095542005033,-57.98721045310678,-16.598153465950475,-57.901839664146,-15.981689251394375,-58.12354876770873,-16.831208545849456,-57.6570610396895,-19.898051371085252,-57.817320436123545,-18.105770021460327,-57.41975394649841,-19.900923651174526,-57.13621095258462,-21.096124176605418,-57.00475004875265,-21.78961166383238,-56.54113263065427,-23.362879941427924,-56.168953509758616,-25.548857754374485,-55.99738113086703,-26.39800546483809,-56.14299271850974,-25.96741334309898,-55.620949696767134,-27.21293416018879,-55.2352119106267,-28.837809117450515,-54.36250079360986,-31.58568473564821,-53.83542570491463,-33.336334908553376,-53.28071681766411,-34.194014408320214,-53.68115219456539,-33.79208037918469,-52.688648037474145,-36.29828991828396,-51.91780405934377,-37.439470511054,-52.49233715028535,-36.40071780939489,-51.360037542372815,-39.08508023512498,-51.709315185487505,-38.08568998817247,-50.68083180977478,-39.94396963334023,-49.86058453974598,-42.161305061279094,-50.1017447872693,-41.71548233447312,-49.63807397579976,-42.743141658580385,-49.034145706918984,-43.80361290290172,-48.59436803135694,-44.184789211128134,-47.60002359288547,-46.50615252502102,-46.76317269987162,-47.43726280559696,-46.568145792426854,-47.84757728354893,-46.05510472446422,-48.67327212066283,-45.62648236192435,-49.375938642968805,-44.478974580440436,-51.17943641836588,-43.190704091625896,-52.384326948318154,-42.70998541813536,-53.31435185862691,-43.46896112780429,-52.187786780006775,-41.97466078306025,-54.38354027573892,-41.687364288836484,-54.46989248690409,-40.37195356475599,-56.56389697167367,-39.871402738787175,-56.77574928547568,-38.54302892784749,-58.19146179999176,-39.27936461077296,-57.58045516643082,-36.93328679134422,-60.160501559728516,-37.344219891120886,-59.61161791896333,-35.38582089202668,-61.58667759055436,-36.16496024777087,-60.630373419721934,-34.178305136214696,-62.45437711249991,-35.393657668206615,-61.48033520259334,-32.365040876187095,-63.96520573266807,-33.688895979489835,-62.97748745841089,-31.624838341964026,-64.54865015476331,-31.620473685989904,-64.58863649570078,-29.65392513964331,-66.17083827825492,-29.17727804124434,-66.67449607743433,-28.378726272978017,-67.08065145435782,-27.64773555480699,-67.57460865152485,-25.852073346999735,-68.83687725845729,-25.67299501211043,-68.8633312095842,-24.96279475138088,-69.31271146714977,-23.459704430259126,-70.00667768706852,-23.620362199875288,-70.04766409768143,-22.19780023567051,-70.92059717826483,-21.60538044525174,-71.2255356824591,-19.918615661300645,-71.95802895271844,-18.592425044679118,-72.61030301722343,-18.256256484049896,-72.7755932515741,-18.272191885943386,-72.68636230569088,-17.437097883908518,-72.98767485822066,-14.901464264237344,-74.05172252895139,-14.329135284024023,-74.09612884526852,-13.16738509287461,-74.61490045408084,-12.805551363294374,-74.72003407161546,-12.658851437982623,-74.71711909062381,-12.406065262341766,-74.84448378002543,-9.340704864847343,-75.54607133371411,-8.487110790258527,-75.80451236201826,-8.674485335458797,-75.72473812407014,-8.953965273098667,-75.66839383625704,-6.0158517444778346,-76.29725917397822,-6.563548881191966,-76.17681904378313,-3.9078415682290775,-76.57865780110322,-4.787438852046278,-76.4471905722545,-1.8636197810500112,-76.83622957357127,-2.5640813329478833,-76.70488316675966,-1.2826593902951346,-76.81660892141879,0.42262450868478396,-76.87927062911581,0.22316973110294835,-76.93434812534207,1.7678260935342194,-77.0599872695495,4.161118938853476,-76.93362285366348,3.1440020487694778,-77.0938689958255,4.462502483257946,-76.91271524916309,6.753859862312762,-76.69203819998228,6.948172016579003,-76.82638932335641,7.518184707759124,-76.63755662723935,7.770445711898336,-76.6564024707212,9.6821500184573,-76.38239694274593,11.265664789456924,-76.17606277147124,12.128190518593623,-75.84375107889885,12.469198097290079,-75.64170813807785,12.560983005580908,-75.83846414242939,14.47919454642468,-75.21626564689248,15.627883691360381,-75.0844029012373,15.06629777640811,-75.28274869951913,15.358843860823608,-74.97620248834714,17.376183438042055,-74.41973225235381,18.546851263878484,-73.97686598433154,20.659593415811717,-73.08312999922947,21.074822087433795,-73.17224337878494,21.241531388179666,-73.19219769611786,23.729902015529444,-71.8111927785452,22.035246828358407,-72.73569134823173,24.825816832033393,-71.03748426106657,25.165645954365452,-70.79384974154272,26.582006640858776,-70.26792762217869,25.925942540180788,-70.80543333309313,27.725678999270166,-69.8333038334934,27.455176910570945,-69.66786347320189,29.03305821508851,-68.85732186865074,30.397358171490655,-67.93185527227118,30.837743684478998,-67.32346103834593,33.0200704296275,-65.81131577995274,32.894025674742615,-65.74405777188952,33.99907981003673,-65.14345006067859,34.07205362907682,-64.76504557042537,35.419546909614574,-64.02510881894115,36.08723267756426,-63.34287235322641,36.291054066626735,-62.86748195277987,37.0886156902967,-62.45366288852561,38.61457932706454,-60.762624468569044,39.62691526126225,-59.64276568247686,38.399262895132416,-61.07857030503388,39.330903516984876,-59.83881988087427,39.89993867942312,-59.22839421923712,41.680410410914995,-57.34714670209041,41.072771537174724,-57.77232371029919,42.57909090305142,-56.05825605814478,42.79520804280017,-55.8937771196165,43.57310082527445,-55.02111515023511,44.22128302792595,-53.645584342324206,45.06048826846148,-52.29685565437744,46.69494449631158,-49.88664658437362,46.38766539197874,-50.557142474089076,47.61953649645827,-48.578436958214134,47.85856896351753,-48.22704594139847,48.41624472899441,-47.059513066089536,49.5597643001851,-45.15223480803769,49.453499191526845,-44.71009639360998,50.37585654527842,-43.600506413706,50.06838454508955,-44.14402512604728,51.11947094866115,-41.862992784249485,51.65449037962366,-40.509104464681634,52.007161719798695,-39.39812716776421,51.48759659013113,-40.941098357563035,51.95212907242079,-40.18743147847631,53.46247898348682,-36.21245286428064,53.044393601760376,-37.57508520362649,53.949254170159016,-34.4006933874458,54.31584518757159,-32.92583122456174,55.115035091606025,-31.186153124777714,54.699350807628186,-32.18550027814116,54.9397404992531,-31.26387926466631,55.60355208061237,-28.440777443869738,55.62116667452866,-29.627358073436273,56.26491748448706,-26.08114335481314,56.45001890518437,-26.358451247366066,56.84568129548013,-23.9094845901217,57.04837305935653,-24.05030027268759,56.81640278631942,-23.394682306256534,57.35475416886833,-22.162552679279887,57.68329172418405,-19.04620626755726,57.832860474230706,-18.875156669045875,58.06243162638183,-17.882449996285725,58.14140738495629,-16.135606277867723,58.24433792118969,-14.951197087137938,58.54369409899657,-12.141480545561546,58.54043647582871,-13.153360611571177,58.62346861322758,-11.469593864947985,58.65547889014184,-9.581702548910535,59.00906350520051,-9.146210711383223,59.07009331525784,-6.707025874862867,58.811936992038014,-5.4461692019665024,59.16193318885346,-5.90463880717135,58.84239737291372,-4.768321854305873,59.07284034645964,-3.0231371056960112,59.035543888251354,-0.20574953179409672,58.949737555992435,-0.5326741816301608,58.8221273548565,2.4766268244458036" fill="#ffc9a9" stroke="black" stroke-width="1.4713964819842988" stroke-linejoin="round" filter="url(#fuzzy)"></polyline><g data-v-79cd3a02="" transform="translate(26.281421386792804 -22.769585592332103)"><polyline data-v-79cd3a02="" id="rightCountour" points="-24.717929630461686,-5.158150787639067,-24.337422850479513,-5.195793588042273,-23.93108742141111,-5.231429073714566,-23.50035875321807,-5.2651443550432635,-23.046631602347194,-5.297023660344894,-22.57126058291697,-5.327148386577503,-22.07556067790407,-5.3555971500529616,-21.56080775032981,-5.382445837149274,-21.028239054446694,-5.407767655022888,-20.47905374692483,-5.431633182320998,-19.914413398038473,-5.454110419893855,-19.33544250285247,-5.4752648415070775,-18.74322899240878,-5.4951594445539556,-18.138824744912935,-5.513854800767758,-17.52324609692054,-5.531409106934046,-16.897474354523766,-5.547878235602973,-16.163746727678213,-5.5641235700339085,-15.417548658774134,-5.579412461731925,-14.66028840109595,-5.593778275409986,-13.893357447910105,-5.607247618131395,-13.118129919845718,-5.619840152605735,-12.335961895822386,-5.631568459051548,-11.548190690628275,-5.6424379440901955,-10.756134082251391,-5.652446795135338,-9.961089492067124,-5.66158597874245,-9.164333120985056,-5.669839281382813,-8.367119044658024,-5.677183391106409,-7.570678270856497,-5.683588018558157,-6.776217762111255,-5.689016055811913,-5.98491942672736,-5.693423771486665,-5.197939081272484,-5.696761040609362,-4.416405387642566,-5.698971607688801,-3.641418767807844,-5.699993381465012,-2.8740502993422377,-5.699758759798548,-2.115340594839136,-5.698194983164151,-1.3662986683165723,-5.695224515213186,-0.6279007917148256,-5.6907654488693,0.09891065541057209,-5.684731936421718,0.8132283398973605,-5.67703464208063,1.5141811295836405,-5.667581215459075,2.200935245410494,-5.656276784445772,2.8726954079171048,-5.643024465933318,3.5287059750253977,-5.627725892866191,4.16825206801117,-5.610281756072983,4.790660682558696,-5.590592359347301,5.395301781795774,-5.568558186241758,5.981589368206261,-5.544080477039499,6.548982531317004,-5.517061814367669,7.096986468056227,-5.487406715917291,7.6251534726802825,-5.455022232733942,8.13308389316586,-5.419818551543694,8.620427050964487,-5.381709599578729,9.086882121016483,-5.3406136503670725,9.532198968921211,-5.296453928950865,9.956178942160701,-5.249159214997612,10.358675612273554,-5.198664442268839,10.739595464876217,-5.144911292910582,11.098898534428482,-5.087848785030145,11.436598980640358,-5.027433852023566,11.75276560341712,-4.963631912118197,12.047522293239691,-4.896417426594862,12.321048413877207,-4.825774445153992,12.573579114328844,-4.7516971368901935,12.805405566891874,-4.674190305339669,13.016875128252842,-4.593269886064925,13.208391420499066,-4.508963425241182,13.380341626166231,-4.4210584442185095,13.532795829052464,-4.329287507178745,13.66573715375797,-4.233608214041592,13.779166316457559,-4.133983001975548,13.873102040482856,-4.030379351054461,13.947581471904446,-3.9227699899140793,14.002660595114147,-3.811133101408614,14.03841464840717,-3.695452528267279,14.054938539564326,-3.575717978750861,14.052347261434246,-3.451925232308263,14.030776307515556,-3.324076345233061,13.990382087539114,-3.192179856320061,13.931342343050162,-3.0562509925218477,13.853856562990583,-2.916311874605343,13.722614823949407,-1.2320070560653376,13.316926323969867,-1.0264666279473111,12.905055867616149,-0.818303234397856,12.487536679867748,-0.6077316233486094,12.064937876198382,-0.3949867754328338,11.637860013260127,-0.18032305115495273,11.206930639567556,0.035986661939923614,10.772799846181844,0.2536518020964671,10.336135817394943,0.4723649861795982,9.897620381413649,0.6918028625049644,9.457944561043789,0.911626963669395,9.017804124374322,1.131484559381386,8.577895135461478,1.351009509291556,8.13890950501288,1.5698231158231266,7.701530541071679,1.7875349770023883,7.263003115813121,2.005076053376068,6.821195163546672,2.2231561067298005,6.377640927630179,2.4410322830888926,5.933771675847226,2.6579475047602923,5.4909113452116225,2.8731333691855223,5.050272379776881,3.085813082016868,4.6129517946721,3.2952044180489217,4.1799274995859586,3.50052270363771,3.752054914920241,3.7009838142396223,3.330063913834561,3.895807180702322,2.9145561234037896,4.084218797939847,2.506002618109755,4.265454229624078,2.1047420388887756,4.43876160252481,1.7109791709565698,4.603404584130587,1.3247840136321347,4.758665337182547,0.9460913753821227,4.903847444753415,0.5747010273072757,5.0382787995039156,0.21027844829250064,5.161314450748694,-0.14764380495789586,5.2723394029641195,-0.4996640697782051,5.370771359369963,-0.8465088580710356,5.456063404217337,-1.1890294122871659,5.527706617414948,-1.5281975036339808,5.585232615125953,-1.8651004392909392,5.628216009967588,-2.2009352454104945,5.656276784445772,-2.537001992682937,5.669082571256883,-2.8746962312435786,5.6663508340888935,-3.215500501700739,5.647850942554088,-3.560974889062945,5.613406134885551,-3.9127465863438182,5.56289536202963,-4.272498434623083,5.496255006766541,-4.641956406342116,5.413480471491381,-5.022875998612503,5.314627628287665,-5.41702750331604,5.199814124925675,-5.826180120774605,5.069220540417714,-6.252084883768368,4.923091383762609,-6.6964563586807415,4.761735929511465,-7.160953090548571,4.585528883787111,-7.647156758795944,4.394910874389177,-8.15655001043009,4.190388758617258,-8.690492937477842,3.9725357424441246,-9.250198165441034,3.741991304671375,-9.836704519549325,3.4994609196995956,-10.45084923558888,3.245715572545322,-11.09323868208535,2.9815910597369033,-11.764217560619592,2.707987069721577,-12.463836551054559,2.4258660364158597,-13.191818368451802,2.136251759531512,-13.947522198456078,1.8402277853092466,-14.729906477926402,1.5389355412923962,-15.256817525790538,1.3107384296695876,-15.79100982895828,1.0792284025879866,-16.33159829764389,0.8449570190012459,-16.87757176503872,0.6085001533683592,-17.427788514914347,0.3704583275311819,-17.980971809225736,0.13145704259197366,-18.535705415714368,-0.10785288920905778,-19.09042913551139,-0.3467950126162247,-19.64343433074074,-0.5846668974808278,-20.192859452122327,-0.8207398068836085,-20.73668556657515,-1.0542583652572182,-21.27273188482045,-1.2844402265086803,-21.79865128898484,-1.5104757421418515,-22.311925860203466,-1.7315276293798867,-22.809862406223132,-1.9467306392876975" fill="white" stroke="white" stroke-width="0" stroke-linejoin="round" filter="url(#fuzzy)"></polyline></g><g data-v-79cd3a02="" transform="translate(-33.27614597783959 -27.961187035976593)"><polyline data-v-79cd3a02="" id="leftCountour" points="24.04078628650828,-5.041597415666179,23.67096601767725,-5.105789791236624,23.275266386186118,-5.166353744716359,22.855281965639875,-5.22345641125039,22.412552531000614,-5.277259298290163,21.948563972306623,-5.327918384411371,21.46474920839148,-5.375584218131752,20.962489100603193,-5.420402016728896,20.443113366523292,-5.462511765058047,19.90790149368594,-5.502048314369911,19.358083653297065,-5.539141481128453,18.794841613953416,-5.573916145828709,18.219309655361755,-5.606492351814581,17.632575482057888,-5.636985404096649,17.035681137125827,-5.6655059681699695,16.429623915916885,-5.692160168831882,15.702057765854589,-5.717341891366199,14.965163195622674,-5.740937898548866,14.22032107400272,-5.763025612222789,13.468856382743846,-5.783672379550259,12.712041175889691,-5.802935385158255,11.951097346781458,-5.820861613580739,11.187199208165067,-5.837487860363004,10.421475890830402,-5.852840790193187,9.65501356621068,-5.866937040425967,8.888857498369976,-5.879783368363581,8.1240139308069,-5.89137684065919,7.36145181350246,-5.901705063207686,6.602104375640131,-5.91074644988902,5.846870549426134,-5.9184705285291175,5.096616250437928,-5.9248382824434564,4.35217551992901,-5.9298025259283875,3.61435153451792,-5.933308312065269,2.8839174886895917,-5.935293371202489,2.161617355536978,-5.935688578480457,1.4481665311710072,-5.934418448764626,0.7442523682269027,-5.931401657351641,0.050534603894824226,-5.926551584813662,-0.6323543120970623,-5.919776884345965,-1.3038089841191498,-5.910982069982874,-1.9632509264685414,-5.900068124047107,-2.6101285029607277,-5.88693312219761,-3.2439169448568705,-5.871472874440964,-3.864118441698561,-5.8535815804714115,-4.470262299622128,-5.833152497704617,-5.061905161724413,-5.810078620370205,-5.638631285052044,-5.784253368028153,-6.200052868786139,-5.755571281874145,-6.745810428194474,-5.723928727198915,-7.275573208923053,-5.689224600366691,-7.7890396361990994,-5.651361038677796,-8.2859377935174,-5.61024413148049,-8.766025925382054,-5.565784630897126,-9.229092958675544,-5.517898660529684,-9.674959037227147,-5.4665084205097765,-10.103476064152641,-5.4115428872581885,-10.514528246537347,-5.3529385063190285,-10.90803263703439,-5.290639876633561,-11.28393966695026,-5.2246004246188145,-11.642233665389593,-5.154783066416012,-11.982933359031186,-5.081160856673919,-12.306092347107198,-5.003717622232178,-12.611799546157547,-4.9224485790697035,-12.900179599131489,-4.837360930883212,-13.171393243408287,-4.748474447660965,-13.42563763230911,-4.655822022616796,-13.663567484223142,-4.559167928273604,-13.88563608464719,-4.4582143600324935,-14.091775401371534,-4.352915190369369,-14.281930629793118,-4.243229706778288,-14.456060919882256,-4.129122830734653,-14.614140103149301,-4.010565336658385,-14.756157419611421,-3.887534070877124,-14.882118244759281,-3.760012170589396,-14.992044816523736,-3.6279892828278126,-15.085976962242599,-3.4914617834222517,-15.163972825627289,-3.3504329959630397,-15.22610959372962,-3.2049134107641404,-15.272484223908423,-3.0549209038263383,-15.303214170796343,-2.9004809558004245,-15.25666196211017,-1.4086808756878382,-14.982310953559717,-1.1954131262221406,-14.696868769281489,-0.9793262011293518,-14.400494199873068,-0.7606310720779925,-14.093372830228143,-0.5395593277980328,-13.775714989691297,-0.31636237721803706,-13.447753702212877,-0.09131065260229221,-13.109742636503809,0.13530718731203883,-12.761954056190435,0.36318505417778546,-12.40467676996934,0.5920002269006321,-12.03821408176219,0.8214141485019599,-11.662881740870558,1.0510732229817314,-11.279005892130751,1.280609612181327,-10.886921026068658,1.5096420326464193,-10.486967929054561,1.7377765524898292,-10.07757840698281,1.9659481395458203,-9.657334713404657,2.1948768517400206,-9.226798926395114,2.423822222130842,-8.786520938715663,2.652025885006389,-8.337036363337585,2.8787145109029444,-7.878864473169049,3.1031027827321678,-7.412506190291383,3.3243964070671206,-6.938442140010107,3.541795154637149,-6.4571307850262,3.7544959240817812,-5.969006655033089,3.961695823013664,-5.474478687044957,4.162595260440697,-4.973928691761776,4.356401044597379,-4.4677099612766416,4.542329480235556,-3.9561460334309198,4.71960945942453,-3.43952962812266,4.887485539910776,-2.9181217708738627,5.045221005087211,-2.392151118962053,5.1921008996222,-1.8618135054216918,5.327435034798342,-1.3272717162209453,5.45056095761118,-0.7886555159192996,5.560846877677846,-0.24606193711156132,5.657694546005801,0.30044415103628364,5.740542079671729,0.8508291798538017,5.808866726460683,1.405089708529959,5.862187563515577,1.9632509264685412,5.900068124047107,2.525364815329662,5.922118946154183,3.0915079554518385,5.928000037804991,3.661778961349124,5.917423252028752,4.2362955309777774,5.890154566368293,4.81519109346698,5.846016260643464,5.398611040008078,5.784888987075569,5.986708522596821,5.706713726822854,6.579639805323134,5.6114936269771265,7.177559152902856,5.4992957120716826,7.780613241145977,5.370252464150497,8.38893507405584,5.224563265448913,9.002637392253813,5.062495697735787,9.621805557423897,4.884386692367314,10.246489897471788,4.690643525102488,10.876697497092863,4.4817446497304045,11.51238341844359,4.258240364559414,12.153441336610848,4.020753305818261,12.799693574573622,3.769978762019293,13.450880522351621,3.5066848033338127,14.106649425035247,3.2317122200296717,14.766542524391438,2.9459742640212285,15.429984538739886,2.650456187581697,16.096269465794045,2.346214573268031,16.76454669316155,2.034376449108419,17.43380640119839,1.7161381831024674,17.95446413131814,1.4782261335737195,18.470227942873393,1.2364597332242626,18.9802484153429,0.99141960156211,19.483609453236205,0.7437140657697485,19.979326257714447,0.49397959964882965,20.466343298211115,0.2428812625648824,20.943532284052907,-0.008886861607993346,21.40969013608047,-0.2606012255424277,21.86353695826923,-0.5115083795130762,22.303714009350188,-0.760824532451922,22.728781674430707,-1.0077351130035765,23.137217436615316,-1.2513943305805784,23.5274138486265,-1.4909247364186937,23.89767650442552,-1.7254167846322108,24.246222010833172,-1.9539283932692495" fill="white" stroke="white" stroke-width="0" stroke-linejoin="round" filter="url(#fuzzy)"></polyline></g><g data-v-79cd3a02="" transform="translate(26.281421386792804 -22.769585592332103)"><polyline data-v-79cd3a02="" id="rightUpper" points="-26.756540880567332,-4.649993981541323,-26.722577410927414,-4.713171315430158,-26.646082788244684,-4.773300560113702,-26.528927072885416,-4.8305004358641055,-26.37293455983623,-4.884886273759657,-26.179884289890584,-4.936570066397076,-25.95151056083526,-4.9856605186038365,-25.689503438636805,-5.0322630981504615,-25.395509268628096,-5.0764800864628405,-25.071131186694757,-5.11841062933453,-24.717929630461686,-5.158150787639067,-24.337422850479513,-5.195793588042273,-23.93108742141111,-5.231429073714566,-23.50035875321807,-5.2651443550432635,-23.046631602347194,-5.297023660344894,-22.57126058291697,-5.327148386577503,-22.07556067790407,-5.3555971500529616,-21.56080775032981,-5.382445837149274,-21.028239054446694,-5.407767655022888,-20.47905374692483,-5.431633182320998,-19.914413398038473,-5.454110419893855,-19.33544250285247,-5.4752648415070775,-18.74322899240878,-5.4951594445539556,-18.138824744912935,-5.513854800767758,-17.52324609692054,-5.531409106934046,-16.897474354523766,-5.547878235602973,-16.163746727678213,-5.5641235700339085,-15.417548658774134,-5.579412461731925,-14.66028840109595,-5.593778275409986,-13.893357447910105,-5.607247618131395,-13.118129919845718,-5.619840152605735,-12.335961895822386,-5.631568459051548,-11.548190690628275,-5.6424379440901955,-10.756134082251391,-5.652446795135338,-9.961089492067124,-5.66158597874245,-9.164333120985056,-5.669839281382813,-8.367119044658024,-5.677183391106409,-7.570678270856497,-5.683588018558157,-6.776217762111255,-5.689016055811913,-5.98491942672736,-5.693423771486665,-5.197939081272484,-5.696761040609362,-4.416405387642566,-5.698971607688801,-3.641418767807844,-5.699993381465012,-2.8740502993422377,-5.699758759798548,-2.115340594839136,-5.698194983164151,-1.3662986683165723,-5.695224515213186,-0.6279007917148256,-5.6907654488693,0.09891065541057209,-5.684731936421718,0.8132283398973605,-5.67703464208063,1.5141811295836405,-5.667581215459075,2.200935245410494,-5.656276784445772,2.8726954079171048,-5.643024465933318,3.5287059750253977,-5.627725892866191,4.16825206801117,-5.610281756072983,4.790660682558696,-5.590592359347301,5.395301781795774,-5.568558186241758,5.981589368206261,-5.544080477039499,6.548982531317004,-5.517061814367669,7.096986468056227,-5.487406715917291,7.6251534726802825,-5.455022232733942,8.13308389316586,-5.419818551543694,8.620427050964487,-5.381709599578729,9.086882121016483,-5.3406136503670725,9.532198968921211,-5.296453928950865,9.956178942160701,-5.249159214997612,10.358675612273554,-5.198664442268839,10.739595464876217,-5.144911292910582,11.098898534428482,-5.087848785030145,11.436598980640358,-5.027433852023566,11.75276560341712,-4.963631912118197,12.047522293239691,-4.896417426594862,12.321048413877207,-4.825774445153992,12.573579114328844,-4.7516971368901935,12.805405566891874,-4.674190305339669,13.016875128252842,-4.593269886064925,13.208391420499066,-4.508963425241182,13.380341626166231,-4.4210584442185095,13.532795829052464,-4.329287507178745,13.66573715375797,-4.233608214041592,13.779166316457559,-4.133983001975548,13.873102040482856,-4.030379351054461,13.947581471904446,-3.9227699899140793,14.002660595114147,-3.811133101408614,14.03841464840717,-3.695452528267279,14.054938539564326,-3.575717978750861,14.052347261434246,-3.451925232308263,14.030776307515556,-3.324076345233061,13.990382087539114,-3.192179856320061,13.931342343050162,-3.0562509925218477,13.853856562990583,-2.916311874605343,13.758146399281063,-2.7723917228083588,13.644456082403313,-2.624527062496148,13.513052836982261,-2.472761929817965,13.364227297368267,-2.317148077363614,13.198293923219296,-2.157745179820005,13.015591415083161,-1.9946210396277082,12.816483129979694,-1.8278517926375066,12.601357496982956,-1.6575221137669538,12.370628432803446,-1.4837254226569234,12.124735757370303,-1.3065640893281651" fill="none" stroke="black" stroke-width="1.4713964819842988" stroke-linejoin="round" stroke-linecap="round" filter="url(#fuzzy)"></polyline><polyline data-v-79cd3a02="" id="rightLower" points="-26.218859973614617,-3.5660574975134556,-26.06418716269447,-3.463321799589523,-25.856620440376993,-3.344473583223121,-25.600851714625765,-3.210676012196282,-25.301352896047472,-3.063060965357425,-24.96238037028876,-2.902729368498895,-24.58797947043311,-2.7307515262344992,-24.18198894939766,-2.5481674538770465,-23.748045452330093,-2.355987209315882,-23.28958798900548,-2.1551912248944216,-22.809862406223132,-1.9467306392876975,-22.311925860203466,-1.7315276293798867,-21.79865128898484,-1.5104757421418515,-21.27273188482045,-1.2844402265086803,-20.73668556657515,-1.0542583652572182,-20.192859452122327,-0.8207398068836085,-19.64343433074074,-0.5846668974808278,-19.09042913551139,-0.3467950126162247,-18.535705415714368,-0.10785288920905778,-17.980971809225736,0.13145704259197366,-17.427788514914347,0.3704583275311819,-16.87757176503872,0.6085001533683592,-16.33159829764389,0.8449570190012459,-15.79100982895828,1.0792284025879866,-15.256817525790538,1.3107384296695876,-14.729906477926402,1.5389355412923962,-13.947522198456078,1.8402277853092466,-13.191818368451802,2.136251759531512,-12.463836551054559,2.4258660364158597,-11.764217560619592,2.707987069721577,-11.09323868208535,2.9815910597369033,-10.45084923558888,3.245715572545322,-9.836704519549325,3.4994609196995956,-9.250198165441034,3.741991304671375,-8.690492937477842,3.9725357424441246,-8.15655001043009,4.190388758617258,-7.647156758795944,4.394910874389177,-7.160953090548571,4.585528883787111,-6.6964563586807415,4.761735929511465,-6.252084883768368,4.923091383762609,-5.826180120774605,5.069220540417714,-5.41702750331604,5.199814124925675,-5.022875998612503,5.314627628287665,-4.641956406342116,5.413480471491381,-4.272498434623083,5.496255006766541,-3.9127465863438182,5.56289536202963,-3.560974889062945,5.613406134885551,-3.215500501700739,5.647850942554088,-2.8746962312435786,5.6663508340888935,-2.537001992682937,5.669082571256883,-2.2009352454104945,5.656276784445772,-1.8651004392909392,5.628216009967588,-1.5281975036339808,5.585232615125953,-1.1890294122871659,5.527706617414948,-0.8465088580710356,5.456063404217337,-0.4996640697782051,5.370771359369963,-0.14764380495789586,5.2723394029641195,0.21027844829250064,5.161314450748694,0.5747010273072757,5.0382787995039156,0.9460913753821227,4.903847444753415,1.3247840136321347,4.758665337182547,1.7109791709565698,4.603404584130587,2.1047420388887756,4.43876160252481,2.506002618109755,4.265454229624078,2.9145561234037896,4.084218797939847,3.330063913834561,3.895807180702322,3.752054914920241,3.7009838142396223,4.1799274995859586,3.50052270363771,4.6129517946721,3.2952044180489217,5.050272379776881,3.085813082016868,5.4909113452116225,2.8731333691855223,5.933771675847226,2.6579475047602923,6.377640927630179,2.4410322830888926,6.821195163546672,2.2231561067298005,7.263003115813121,2.005076053376068,7.701530541071679,1.7875349770023883,8.13890950501288,1.5698231158231266,8.577895135461478,1.351009509291556,9.017804124374322,1.131484559381386,9.457944561043789,0.911626963669395,9.897620381413649,0.6918028625049644,10.336135817394943,0.4723649861795982,10.772799846181844,0.2536518020964671,11.206930639567556,0.035986661939923614,11.637860013260127,-0.18032305115495273,12.064937876198382,-0.3949867754328338,12.487536679867748,-0.6077316233486094,12.905055867616149,-0.818303234397856,13.316926323969867,-1.0264666279473111,13.722614823949407,-1.2320070560653376,14.121628482385372,-1.4347308563523962,14.513519203234356,-1.6344663047715113,14.89788812889476,-1.8310644684787483,15.274390089522718,-2.0244000586536726,15.642738052347926,-2.2143722833298267,16.002707570989543,-2.400905700225203,16.354141234772058,-2.583951069572701,16.696953118041115,-2.7634862069506076,17.031133229479448,-2.939516836113062,17.356751961422706,-3.1120774418205266" fill="none" stroke="black" stroke-width="1.4713964819842988" stroke-linejoin="round" stroke-linecap="round" filter="url(#fuzzy)"></polyline><circle data-v-79cd3a02="" r="3.3270225456883904" cx="-18.04141571630134" cy="-5.230067439215972" stroke="black" fill="none" stroke-width="1.3094513548663498" filter="url(#fuzzy)" clip-path="url(#rightEyeClipPath)"></circle><circle data-v-79cd3a02="" r="3.2724527385661464" cx="-17.857130118363806" cy="-5.424483978023552" stroke="black" fill="none" stroke-width="1.2486722409579172" filter="url(#fuzzy)" clip-path="url(#rightEyeClipPath)"></circle><circle data-v-79cd3a02="" r="4.247063627624692" cx="-19.159735104029167" cy="-0.9338745420774157" stroke="black" fill="none" stroke-width="1.1365057202106077" filter="url(#fuzzy)" clip-path="url(#rightEyeClipPath)"></circle><circle data-v-79cd3a02="" r="3.3038906155321683" cx="-19.694673890206573" cy="-3.0926174362898697" stroke="black" fill="none" stroke-width="1.0894822818999732" filter="url(#fuzzy)" clip-path="url(#rightEyeClipPath)"></circle><circle data-v-79cd3a02="" r="4.470838576428148" cx="-15.79903584984382" cy="-1.923607655427087" stroke="black" fill="none" stroke-width="1.4331651289553575" filter="url(#fuzzy)" clip-path="url(#rightEyeClipPath)"></circle><circle data-v-79cd3a02="" r="3.6772719037949386" cx="-19.176253876633726" cy="-2.9864729262365475" stroke="black" fill="none" stroke-width="1.1460471500528455" filter="url(#fuzzy)" clip-path="url(#rightEyeClipPath)"></circle><circle data-v-79cd3a02="" r="4.294749137728905" cx="-19.539543554236335" cy="-2.5781640213223502" stroke="black" fill="none" stroke-width="1.3554313864781133" filter="url(#fuzzy)" clip-path="url(#rightEyeClipPath)"></circle><circle data-v-79cd3a02="" r="4.753262755640227" cx="-19.544380717556123" cy="-3.8823240608054137" stroke="black" fill="none" stroke-width="1.4451750962256418" filter="url(#fuzzy)" clip-path="url(#rightEyeClipPath)"></circle><circle data-v-79cd3a02="" r="3.865365006914103" cx="-16.458497501069807" cy="-3.442729651634592" stroke="black" fill="none" stroke-width="1.330373287671075" filter="url(#fuzzy)" clip-path="url(#rightEyeClipPath)"></circle><circle data-v-79cd3a02="" r="3.186089458568611" cx="-19.20843908774795" cy="-1.5774888671571365" stroke="black" fill="none" stroke-width="1.4282028252085046" filter="url(#fuzzy)" clip-path="url(#rightEyeClipPath)"></circle></g><g data-v-79cd3a02="" transform="translate(-33.27614597783959 -27.961187035976593)"><polyline data-v-79cd3a02="" id="leftUpper" points="25.923807540067216,-4.159119078932131,25.913191456718103,-4.270096855698088,25.857535331094127,-4.375443595860604,25.759031977780552,-4.4753881464795,25.61981027552858,-4.570152738742997,25.441936080974536,-4.659953086785523,25.227413142358927,-4.744998486505512,24.978184013245574,-4.825491914383217,24.69613096624073,-4.9016301262985005,24.383076906712155,-4.973603756348652,24.04078628650828,-5.041597415666179,23.67096601767725,-5.105789791236624,23.275266386186118,-5.166353744716359,22.855281965639875,-5.22345641125039,22.412552531000614,-5.277259298290163,21.948563972306623,-5.327918384411371,21.46474920839148,-5.375584218131752,20.962489100603193,-5.420402016728896,20.443113366523292,-5.462511765058047,19.90790149368594,-5.502048314369911,19.358083653297065,-5.539141481128453,18.794841613953416,-5.573916145828709,18.219309655361755,-5.606492351814581,17.632575482057888,-5.636985404096649,17.035681137125827,-5.6655059681699695,16.429623915916885,-5.692160168831882,15.702057765854589,-5.717341891366199,14.965163195622674,-5.740937898548866,14.22032107400272,-5.763025612222789,13.468856382743846,-5.783672379550259,12.712041175889691,-5.802935385158255,11.951097346781458,-5.820861613580739,11.187199208165067,-5.837487860363004,10.421475890830402,-5.852840790193187,9.65501356621068,-5.866937040425967,8.888857498369976,-5.879783368363581,8.1240139308069,-5.89137684065919,7.36145181350246,-5.901705063207686,6.602104375640131,-5.91074644988902,5.846870549426134,-5.9184705285291175,5.096616250437928,-5.9248382824434564,4.35217551992901,-5.9298025259283875,3.61435153451792,-5.933308312065269,2.8839174886895917,-5.935293371202489,2.161617355536978,-5.935688578480457,1.4481665311710072,-5.934418448764626,0.7442523682269027,-5.931401657351641,0.050534603894824226,-5.926551584813662,-0.6323543120970623,-5.919776884345965,-1.3038089841191498,-5.910982069982874,-1.9632509264685414,-5.900068124047107,-2.6101285029607277,-5.88693312219761,-3.2439169448568705,-5.871472874440964,-3.864118441698561,-5.8535815804714115,-4.470262299622128,-5.833152497704617,-5.061905161724413,-5.810078620370205,-5.638631285052044,-5.784253368028153,-6.200052868786139,-5.755571281874145,-6.745810428194474,-5.723928727198915,-7.275573208923053,-5.689224600366691,-7.7890396361990994,-5.651361038677796,-8.2859377935174,-5.61024413148049,-8.766025925382054,-5.565784630897126,-9.229092958675544,-5.517898660529684,-9.674959037227147,-5.4665084205097765,-10.103476064152641,-5.4115428872581885,-10.514528246537347,-5.3529385063190285,-10.90803263703439,-5.290639876633561,-11.28393966695026,-5.2246004246188145,-11.642233665389593,-5.154783066416012,-11.982933359031186,-5.081160856673919,-12.306092347107198,-5.003717622232178,-12.611799546157547,-4.9224485790697035,-12.900179599131489,-4.837360930883212,-13.171393243408287,-4.748474447660965,-13.42563763230911,-4.655822022616796,-13.663567484223142,-4.559167928273604,-13.88563608464719,-4.4582143600324935,-14.091775401371534,-4.352915190369369,-14.281930629793118,-4.243229706778288,-14.456060919882256,-4.129122830734653,-14.614140103149301,-4.010565336658385,-14.756157419611421,-3.887534070877124,-14.882118244759281,-3.760012170589396,-14.992044816523736,-3.6279892828278126,-15.085976962242599,-3.4914617834222517,-15.163972825627289,-3.3504329959630397,-15.22610959372962,-3.2049134107641404,-15.272484223908423,-3.0549209038263383,-15.303214170796343,-2.9004809558004245,-15.318438113266511,-2.741626870950382,-15.318316681399269,-2.578399996116568,-15.303033183448859,-2.4108499396789034,-15.272794332810184,-2.2390347905200554,-15.227830974985475,-2.063021336988624,-15.168398814551031,-1.8828852858623235,-15.094779142123924,-1.6987114813111734,-15.007279561328714,-1.5105941238606784,-14.906234715764155,-1.3186369893550154,-14.792007015969924,-1.122953647920225" fill="none" stroke="black" stroke-width="1.4713964819842988" stroke-linejoin="round" filter="url(#fuzzy)"></polyline><polyline data-v-79cd3a02="" id="leftLower" points="26.07720073838354,-3.6787202189151187,26.06494081277195,-3.5692992934152796,26.007789269828265,-3.4425910573465335,25.90853093499222,-3.2998870952810107,25.769841362771082,-3.142442066277671,25.59428886511887,-2.971474142826991,25.38433653981553,-2.7881654497956774,25.14234429884617,-2.593662503371359,24.8705708967802,-2.389076650007291,24.571175959150622,-2.1754845053670526,24.246222010833172,-1.9539283932692495,23.89767650442552,-1.7254167846322108,23.5274138486265,-1.4909247364186937,23.137217436615316,-1.2513943305805784,22.728781674430707,-1.0077351130035765,22.303714009350188,-0.760824532451922,21.86353695826923,-0.5115083795130762,21.40969013608047,-0.2606012255424277,20.943532284052907,-0.008886861607993346,20.466343298211115,0.2428812625648824,19.979326257714447,0.49397959964882965,19.483609453236205,0.7437140657697485,18.9802484153429,0.99141960156211,18.470227942873393,1.2364597332242626,17.95446413131814,1.4782261335737195,17.43380640119839,1.7161381831024674,16.76454669316155,2.034376449108419,16.096269465794045,2.346214573268031,15.429984538739886,2.650456187581697,14.766542524391438,2.9459742640212285,14.106649425035247,3.2317122200296717,13.450880522351621,3.5066848033338127,12.799693574573622,3.769978762019293,12.153441336610848,4.020753305818261,11.51238341844359,4.258240364559414,10.876697497092863,4.4817446497304045,10.246489897471788,4.690643525102488,9.621805557423897,4.884386692367314,9.002637392253813,5.062495697735787,8.38893507405584,5.224563265448913,7.780613241145977,5.370252464150497,7.177559152902856,5.4992957120716826,6.579639805323134,5.6114936269771265,5.986708522596821,5.706713726822854,5.398611040008078,5.784888987075569,4.81519109346698,5.846016260643464,4.2362955309777774,5.890154566368293,3.661778961349124,5.917423252028752,3.0915079554518385,5.928000037804991,2.525364815329662,5.922118946154183,1.9632509264685412,5.900068124047107,1.405089708529959,5.862187563515577,0.8508291798538017,5.808866726460683,0.30044415103628364,5.740542079671729,-0.24606193711156132,5.657694546005801,-0.7886555159192996,5.560846877677846,-1.3272717162209453,5.45056095761118,-1.8618135054216918,5.327435034798342,-2.392151118962053,5.1921008996222,-2.9181217708738627,5.045221005087211,-3.43952962812266,4.887485539910776,-3.9561460334309198,4.71960945942453,-4.4677099612766416,4.542329480235556,-4.973928691761776,4.356401044597379,-5.474478687044957,4.162595260440697,-5.969006655033089,3.961695823013664,-6.4571307850262,3.7544959240817812,-6.938442140010107,3.541795154637149,-7.412506190291383,3.3243964070671206,-7.878864473169049,3.1031027827321678,-8.337036363337585,2.8787145109029444,-8.786520938715663,2.652025885006389,-9.226798926395114,2.423822222130842,-9.657334713404657,2.1948768517400206,-10.07757840698281,1.9659481395458203,-10.486967929054561,1.7377765524898292,-10.886921026068658,1.5096420326464193,-11.279005892130751,1.280609612181327,-11.662881740870558,1.0510732229817314,-12.03821408176219,0.8214141485019599,-12.40467676996934,0.5920002269006321,-12.761954056190435,0.36318505417778546,-13.109742636503809,0.13530718731203883,-13.447753702212877,-0.09131065260229221,-13.775714989691297,-0.31636237721803706,-14.093372830228143,-0.5395593277980328,-14.400494199873068,-0.7606310720779925,-14.696868769281489,-0.9793262011293518,-14.982310953559717,-1.1954131262221406,-15.25666196211017,-1.4086808756878382,-15.519791848476517,-1.6189398917822295,-15.771601560188858,-1.8260228275482682,-16.01202498860887,-2.029785343678937,-16.241031018775004,-2.2301069053801017,-16.45862557924763,-2.426891579233379,-16.664853691954242,-2.6200688300589956,-16.859801522034566,-2.809594317778635,-17.043598427685787,-2.995450694278315,-17.216419010007684,-3.1776484002712304,-17.37848516284781,-3.356226462160629" fill="none" stroke="black" stroke-width="1.4713964819842988" stroke-linejoin="round" filter="url(#fuzzy)"></polyline><circle data-v-79cd3a02="" r="4.811628795239302" cx="-1.1296368966384964" cy="-2.5116300118028763" stroke="black" fill="none" stroke-width="1.1414876258610005" filter="url(#fuzzy)" clip-path="url(#leftEyeClipPath)"></circle><circle data-v-79cd3a02="" r="4.980847587069874" cx="-2.332168780927708" cy="-3.3312111762134973" stroke="black" fill="none" stroke-width="1.220323762346469" filter="url(#fuzzy)" clip-path="url(#leftEyeClipPath)"></circle><circle data-v-79cd3a02="" r="3.895344276474363" cx="-2.106881852746204" cy="-0.09393051503559136" stroke="black" fill="none" stroke-width="1.3108323460734272" filter="url(#fuzzy)" clip-path="url(#leftEyeClipPath)"></circle><circle data-v-79cd3a02="" r="4.155709192483489" cx="-1.6862392758094635" cy="-2.332178380786027" stroke="black" fill="none" stroke-width="1.4141104214606015" filter="url(#fuzzy)" clip-path="url(#leftEyeClipPath)"></circle><circle data-v-79cd3a02="" r="4.340354254874741" cx="-1.1337598128150397" cy="-1.1408079938711273" stroke="black" fill="none" stroke-width="1.0062590820921051" filter="url(#fuzzy)" clip-path="url(#leftEyeClipPath)"></circle><circle data-v-79cd3a02="" r="3.9230952150340657" cx="-1.0714343310556265" cy="-3.7432889979845134" stroke="black" fill="none" stroke-width="1.4170326190942872" filter="url(#fuzzy)" clip-path="url(#leftEyeClipPath)"></circle><circle data-v-79cd3a02="" r="3.619660522258504" cx="-1.0410072636858758" cy="-2.417059082597751" stroke="black" fill="none" stroke-width="1.4017735742909245" filter="url(#fuzzy)" clip-path="url(#leftEyeClipPath)"></circle><circle data-v-79cd3a02="" r="4.925272582547901" cx="-1.1821253435655041" cy="-0.6778453008258154" stroke="black" fill="none" stroke-width="1.2696616905815514" filter="url(#fuzzy)" clip-path="url(#leftEyeClipPath)"></circle><circle data-v-79cd3a02="" r="3.861919040730675" cx="-1.8059770668938302" cy="0.1713932873197379" stroke="black" fill="none" stroke-width="1.3917855826325807" filter="url(#fuzzy)" clip-path="url(#leftEyeClipPath)"></circle><circle data-v-79cd3a02="" r="3.3331854716720164" cx="-0.2557129840057115" cy="-2.83409838934893" stroke="black" fill="none" stroke-width="1.223745996346676" filter="url(#fuzzy)" clip-path="url(#leftEyeClipPath)"></circle></g><g data-v-79cd3a02="" id="hairs"><polyline data-v-79cd3a02="" points="-29.17727804124434,-66.67449607743433,-28.248132071349225,-67.13009035607276,-26.983934841594543,-67.68418846794972,-25.514380941764436,-68.21370827842384,-23.90083503782614,-68.67285769690623,-22.142900227291005,-69.07644260117432,-20.228146304840937,-69.4534942580458,-18.152388139928547,-69.82659211950684,-15.927081735013823,-70.20542563861497,-13.580805336089586,-70.58598620541991,-11.151728085842386,-70.95435070950532,-8.672719489652042,-71.29442299426418,-6.159282512808658,-71.59619008997477,-3.6112631389417817,-71.86007185732215,-1.0294707394018001,-72.09538060254947,1.5651277029925428,-72.31468939073837,4.127437987323186,-72.52781822470669,6.607368029758708,-72.73817952277892,8.979411509189958,-72.94242359361428,11.255849938480438,-73.13334254805055,13.464697106446692,-73.3039248103878,15.59301448460886,-73.44996308624539,17.475170083619226,-73.59814171892873" fill="none" stroke="url(#rainbowGradient)" stroke-width="1.9171823345140382" stroke-linejoin="round" filter="url(#fuzzy)"></polyline><polyline data-v-79cd3a02="" points="6.948172016579003,-76.82638932335641,7.530517365522164,-76.68803679652557,8.41464740566589,-76.54542220905277,9.489413710288833,-76.36963562123101,10.509585989042936,-76.18355431619766,11.32067464334307,-76.0169589378268,11.881144430602166,-75.88758358026075,12.204393388668509,-75.79988547888595,12.298453304521763,-75.75238873580503,12.143300415610792,-75.74274821264174,11.705551537104935,-75.76761944334449,10.96280362910956,-75.82297528070399,9.906837683365408,-75.9096718949926,8.507322180794159,-76.0408702133264,6.629616631154837,-76.24398647036229,3.9519925631592114,-76.55082307349004" fill="none" stroke="url(#rainbowGradient)" stroke-width="1.8338221365366336" stroke-linejoin="round" filter="url(#fuzzy)"></polyline><polyline data-v-79cd3a02="" points="46.38766539197874,-50.557142474089076,47.1732950530612,-49.179805683174,47.50105877725853,-48.25444622589691,47.5501457236215,-47.48616903355939,47.32151439969451,-46.89214528920478,46.798259514428985,-46.50517527154694,45.97772578861495,-46.311833003086164,44.857383952077214,-46.28691966427512,43.42528481750394,-46.42617930805787,41.6670082717243,-46.74244646386396,39.576604588202834,-47.240583729714594,37.15679782022657,-47.90210238302796,34.407222394318744,-48.69450939763817,31.31253722869968,-49.59628626978947,27.842781246104995,-50.617671744959054,23.966968377640818,-51.803967102000406,19.66822255948835,-53.22026276645347,14.945458057227242,-54.923478829711165,9.796204905641307,-56.93146998244865,4.192952759185472,-59.20733280233155,-1.9196631661202925,-61.68231855301029,-8.58577981203844,-64.3140546703317,-15.793993671710233,-67.11004412608074" fill="none" stroke="url(#rainbowGradient)" stroke-width="0.5212198817804254" stroke-linejoin="round" filter="url(#fuzzy)"></polyline><polyline data-v-79cd3a02="" points="7.770445711898336,-76.6564024707212,9.475925561575902,-76.3787007497277,10.878764437484525,-76.05990960541621,12.052528087314027,-75.71793141153742,13.143702355757762,-75.36209716597105,14.24472263681713,-74.99005667858336,15.375446263700592,-74.59789719799997,16.529915774855656,-74.18084272928462,17.712231720629852,-73.73366700661384,18.931903778284017,-73.25700115577057,20.178274537858037,-72.76466948091266,21.405951845110206,-72.2843013846923,22.545469912033127,-71.84894296946489,23.530422829071263,-71.48451628321519,24.32203229357546,-71.20091693863688,24.91699120726872,-70.99186852390727,25.33611679243641,-70.84320120376307,25.60065596758779,-70.74523516781807,25.707073826270598,-70.70441597937784,25.61255645684427,-70.75047300896033,25.24540516856956,-70.93400266459483,24.562877460245538,-71.2990628396349,23.72904005918707,-71.77729201595861" fill="none" stroke="url(#rainbowGradient)" stroke-width="2.509270571900487" stroke-linejoin="round" filter="url(#fuzzy)"></polyline><polyline data-v-79cd3a02="" points="-24.96279475138088,-69.31271146714977,-23.77760395842888,-69.79473827712326,-22.477928623184162,-70.16987664139553,-20.770120295790264,-70.53773109593345,-18.673930180666183,-70.88234379388076,-16.294043443306016,-71.16945912700001,-13.72485305063834,-71.37981633658316,-11.008988733731702,-71.52412293472031,-8.145857435961094,-71.63619514188352,-5.130715270028527,-71.7493843476913,-1.9875097437067915,-71.87446452417143,1.2307372286930587,-71.99432548364717,4.4709844720940035,-72.07641472020316,7.711636145442151,-72.09230322260973,10.966368708878864,-72.03454175071276,14.243399671760695,-71.9310943267792,17.45691518196177,-71.8652063455287,20.296727931132303,-72.01005081812409" fill="none" stroke="url(#rainbowGradient)" stroke-width="1.643201210669037" stroke-linejoin="round" filter="url(#fuzzy)"></polyline><polyline data-v-79cd3a02="" points="-18.592425044679118,-72.61030301722343,-18.119544310198854,-72.66453366208647,-17.049420370337604,-72.68437042856775,-15.342988414538649,-72.73389687922791,-13.210931042734858,-72.75057591412973,-10.85138833698121,-72.66849057260612,-8.356587541220193,-72.46180564031478,-5.725144689351682,-72.14196307051805,-2.916306544348643,-71.73763088704872,0.0958599118675032,-71.27255718975256,3.2968543154722783,-70.75239926587672,6.642330053796537,-70.16846925887948,10.08592600406918,-69.51662411928933,13.59493486072227,-68.8159904892513,17.143369440709115,-68.10672489934632,20.701895447191873,-67.42061575988342,24.244752222625706,-66.75060032144148,27.749592970284787,-66.06578763251665,31.129644828157854,-65.37929943703139" fill="none" stroke="url(#rainbowGradient)" stroke-width="1.7647465537033353" stroke-linejoin="round" filter="url(#fuzzy)"></polyline><polyline data-v-79cd3a02="" points="-6.0158517444778346,-76.29725917397822,-5.67683210279881,-76.31454880335045,-4.706934791359159,-76.4182690583632,-3.619006752572363,-76.5185835706568,-2.5056177323282225,-76.59916013019071,-1.385696114115519,-76.66095619817104,-0.2628772169647141,-76.70969894292304,0.8518073515862649,-76.75019616526049,1.9320806285682706,-76.78402697341487,2.9418665273145743,-76.80983622900852,3.8464101309199346,-76.82513733088663,4.618765538692205,-76.82860631626353,5.236672196676345,-76.82176416811268,5.675589696558546,-76.80893060685261,5.908566659167079,-76.79508658658006,5.91459407733368,-76.78280511839816,5.682643020052454,-76.77063041560396,5.199089562705763,-76.75482040069488,4.429164243599265,-76.73390273284869,3.3207953611372654,-76.71264356060632,1.8266711610848891,-76.70123165357093,-0.11703340873579515,-76.7060903499655" fill="none" stroke="url(#rainbowGradient)" stroke-width="1.304838136504673" stroke-linejoin="round" filter="url(#fuzzy)"></polyline><polyline data-v-79cd3a02="" points="7.518184707759124,-76.63755662723935,8.240061082159881,-76.56105271313122,9.305154865697832,-76.38167161870902,10.216264284912166,-76.17250528499771,10.843164518834769,-75.96534064056667,11.215150155863963,-75.76652059237999,11.383660896280727,-75.57087098932783,11.37067712965895,-75.36915578407869,11.176732818595458,-75.14837197347178,10.80100582379805,-74.89289369145014,10.24448289606806,-74.59073476623962,9.497738337171088,-74.2408932479718,8.529729854483502,-73.85471549219315,7.288994424937599,-73.44858763558116,5.71643472408808,-73.03254635494962,3.7619491331535873,-72.60337682289045,1.3976298270948604,-72.14804429976205,-1.3773580925132638,-71.6557221159305,-4.544486504909065,-71.12997129861415,-8.087239641382157,-70.59163466513562,-12.013414309572678,-70.06807946899707,-16.343465171168543,-69.57573271726065,-21.02699008206063,-69.12830654376762" fill="none" stroke="url(#rainbowGradient)" stroke-width="1.0141526173182076" stroke-linejoin="round" filter="url(#fuzzy)"></polyline><polyline data-v-79cd3a02="" points="49.5597643001851,-45.15223480803769,49.71201061296163,-44.61207717774186,50.03612951776402,-44.003899071487034,50.385806129113725,-43.30868583499845,50.703308816735216,-42.60068255477409,50.93228927809068,-42.026210992797786,51.04576061785071,-41.66362053481028,51.04773510480703,-41.49711962033833,50.94819658936407,-41.478362510190365,50.7419581242696,-41.59075053279079,50.40544881535698,-41.87200247269696,49.9050413765944,-42.401613915380494,49.20572239141346,-43.27539299208746,48.27693610386696,-44.57721248785374,47.100766530582476,-46.34945384162774,45.68765588763587,-48.57105348497304,44.09554169437229,-51.15837256212606,42.42798874619753,-53.99543994758072,40.738176030419496,-57.030455426194784" fill="none" stroke="url(#rainbowGradient)" stroke-width="1.0672002919551977" stroke-linejoin="round" filter="url(#fuzzy)"></polyline><polyline data-v-79cd3a02="" points="51.11947094866115,-41.862992784249485,51.443062463542844,-40.905134727051305,51.441701848555056,-40.58329509662225,51.284646904397455,-40.4402510685007,51.03581551071775,-40.22098160874303,50.658363346472235,-39.950081558241145,50.08942572195749,-39.75749258627381,49.275086492606235,-39.77710678837363,48.1766082023581,-40.11119228917654,46.76940590521402,-40.814819177633055,45.039972216402475,-41.8934938985967,42.98060627914477,-43.32010539342507,40.585044022912726,-45.06372518687085,37.84791607558435,-47.11287206623697,34.76492469183802,-49.48232039223088,31.327110054270303,-52.20547326939274,27.510297834067668,-55.319957621173,23.27690461374733,-58.85117128923051,18.611468870629203,-62.797198814877056,13.567742537249313,-67.12780807559294,8.170471492127675,-71.83038482069155" fill="none" stroke="url(#rainbowGradient)" stroke-width="0.9512188217201607" stroke-linejoin="round" filter="url(#fuzzy)"></polyline><polyline data-v-79cd3a02="" points="43.57310082527445,-55.02111515023511,44.07394717889409,-53.70962684500867,44.23838314998701,-52.46641921666652,43.885941300482635,-51.45069855043853,42.9584640504398,-50.65721586047124,41.46354959039301,-50.010746265522116,39.40979675284588,-49.457342590808295,36.787166788412506,-48.985992176532456,33.57331209596539,-48.61300676769739,29.74644270723244,-48.35533558486908,25.29217266608328,-48.211468122293184,20.200167366041452,-48.16183773066126,14.456404426171478,-48.187340384650994,8.042752178974286,-48.289750077564634,0.9512056447695869,-48.49415883164237,-6.794961159142424,-48.829439293306756,-15.140592710118218,-49.30825717099867,-24.0595317380305,-49.927024006999005,-33.699155297344326,-50.63722441518737" fill="none" stroke="url(#rainbowGradient)" stroke-width="1.6419300371913388" stroke-linejoin="round" filter="url(#fuzzy)"></polyline><polyline data-v-79cd3a02="" points="23.729902015529444,-71.8111927785452,23.253464202773117,-71.9222625832409,23.541015992099748,-71.40221277355657,23.617676305982414,-70.81817942834469,23.258794664407105,-70.25227865286422,22.469796622761898,-69.64207919791261,21.29817848478022,-68.91677425411183,19.76841082858343,-68.03808574927312,17.866683324724374,-67.00037909477398,15.548058728196612,-65.82064242780217,12.754332392155845,-64.52977826434767,9.433762780095062,-63.16438833510391,5.55370312048705,-61.75504540927044,1.0994820027769698,-60.31106433085985,-3.9397718747837267,-58.8087531033252,-9.586026151477089,-57.19499003323799,-15.867847021338697,-55.41510779187622,-22.787683507418873,-53.458494288859924,-30.289435287119556,-51.390446846116724,-38.28795785942348,-49.33263888826412" fill="none" stroke="url(#rainbowGradient)" stroke-width="2.2040684686998038" stroke-linejoin="round" filter="url(#fuzzy)"></polyline><polyline data-v-79cd3a02="" points="-27.64773555480699,-67.57460865152485,-26.154892367529758,-68.30539512214789,-24.544560896919137,-68.50316083875963,-22.493774719258838,-68.43828809771036,-19.95416198024316,-68.1981094733442,-16.930106879761738,-67.81072637096258,-13.431731424391096,-67.28101545195406,-9.49188878026748,-66.60464967145695,-5.174205323192542,-65.77811553981871,-0.5523061147786077,-64.80481062453131,4.323928759500767,-63.697218122925875,9.444995183118376,-62.47656178995057,14.820613480155838,-61.171066816338296,20.429626183606544,-59.816429032903585,26.18297213857706,-58.46506835115726,31.953836037092753,-57.195573477091294,37.69751743292907,-56.06852057755306" fill="none" stroke="url(#rainbowGradient)" stroke-width="1.920962599885926" stroke-linejoin="round" filter="url(#fuzzy)"></polyline><polyline data-v-79cd3a02="" points="42.57909090305142,-56.05825605814478,42.85814718848859,-55.656525483519076,43.12669282928051,-54.89375085367745,43.25996187672147,-53.97040749337432,43.1647612577179,-53.07352907490055,42.76628342604239,-52.32084779570507,42.02077153239399,-51.74504918430533,40.90962539818572,-51.327910191242886,39.42547460010557,-51.04454720730152,37.56247438626798,-50.88794452021731,35.313324333691135,-50.86843461946254,32.66994198500241,-50.999332998958955,29.6239143494033,-51.28456097489487,26.16495837564998,-51.7180723443865,22.278944305563275,-52.29287668705323,17.948971073204696,-53.00794481939526,13.160800815397547,-53.86266335105558,7.908102816502666,-54.841947980439514,2.1896075993051767,-55.91044282406571,-4.0020452441236,-57.03424132629647,-10.681581892337896,-58.22439818283836,-17.832063925622396,-59.571061083195545,-25.290551674305632,-61.283143748171234" fill="none" stroke="url(#rainbowGradient)" stroke-width="1.5826320400615685" stroke-linejoin="round" filter="url(#fuzzy)"></polyline><polyline data-v-79cd3a02="" points="35.419546909614574,-64.02510881894115,35.84730051917727,-63.427878086188464,36.08459081258305,-62.806353920588734,36.15900436806562,-62.11704795831469,35.93617561833248,-61.45162833773605,35.34148715008629,-60.86076856970871,34.390952784250565,-60.31387975129964,33.12948857285543,-59.752673146030936,31.578953391597942,-59.14078960415088,29.72835929486459,-58.47354721017015,27.550029310758866,-57.76137960050518,25.01709155584944,-57.01143004134116,22.110614885490207,-56.22136552249892,18.817874160184115,-55.38646079975908,15.127908411024706,-54.5126836051734,11.028447725617532,-53.62519810733794,6.504453265314801,-52.763320236864814,1.5364525430024578,-51.9603826750805,-3.9019147942894996,-51.2188938207854,-9.843201161284476,-50.501530186508134,-16.314208499824034,-49.75682504523354,-23.310173489206026,-48.976596746765615,-30.773858990863374,-48.24293075676403,-38.615180436079086,-47.69610615645543" fill="none" stroke="url(#rainbowGradient)" stroke-width="2.293234433270304" stroke-linejoin="round" filter="url(#fuzzy)"></polyline><polyline data-v-79cd3a02="" points="49.453499191526845,-44.71009639360998,49.87679068638163,-44.07291074948546,49.82834456588947,-43.58213019268104,49.44266952568085,-43.129764011468275,48.66072306932417,-42.923774441978544,47.45776392755755,-43.04011812918158,45.85006686104665,-43.4074006699417,43.84880435600385,-43.928048752205115,41.43973693801972,-44.56741880118049,38.59279498391521,-45.36716046501858,35.27448681649165,-46.4122589503096,31.44778357577009,-47.78902711657787,27.06781747851205,-49.55158418548221,22.089395648074788,-51.704827900855655,16.490185600177035,-54.21496014442919,10.295702011206183,-57.050491355042624,3.580199819105509,-60.22525116346891,-3.5895294277438996,-63.78981280890684,-11.292794199375937,-67.75194319061757" fill="none" stroke="url(#rainbowGradient)" stroke-width="0.5677340845319047" stroke-linejoin="round" filter="url(#fuzzy)"></polyline><polyline data-v-79cd3a02="" points="51.95212907242079,-40.18743147847631,52.74539224943923,-37.909484112505766,52.89242346727341,-36.78257402349686,52.72443100809337,-35.96129558631768,52.249412684819696,-35.48366746787743,51.43042105758817,-35.42826347531355,50.25765588339799,-35.7640056113694,48.73919078879773,-36.41414548021622,46.877603560250726,-37.32767353191845,44.66074994122251,-38.502185804511726,42.06633099371313,-39.971369126223266,39.07010790830371,-41.78121353796888,35.65122028490673,-43.96804920316746,31.79350382653596,-46.54443935276653,27.48347902351032,-49.499408923553446,22.70554386865674,-52.81711157682482,17.435495681877278,-56.50463764014266,11.635279366297507,-60.60182287675344,5.25865342721913,-65.14960375815416,-1.6804812570630832,-70.15493966357312" fill="none" stroke="url(#rainbowGradient)" stroke-width="2.540448898617187" stroke-linejoin="round" filter="url(#fuzzy)"></polyline><polyline data-v-79cd3a02="" points="53.044393601760376,-37.57508520362649,53.50279660368048,-35.31185735282752,53.266700684761396,-34.20332611829241,52.367729588805794,-33.975435087350895,50.84796661023944,-34.34422357765805,48.740895075193535,-35.10403170619723,46.048823151380105,-36.18324961542798,42.75539947157187,-37.6067539289205,38.837070652918406,-39.43835054979337,34.25807137878347,-41.74178993756258,28.962805492905062,-44.55753288813415,22.884566095787495,-47.88880480099279,15.9767851695065,-51.7064247915381,8.25764159208487,-55.99004766507763,-0.15904346073839726,-60.80188221492154,-9.10860371053571,-66.31652682021424" fill="none" stroke="url(#rainbowGradient)" stroke-width="1.6178870922886301" stroke-linejoin="round" filter="url(#fuzzy)"></polyline><polyline data-v-79cd3a02="" points="34.07205362907682,-64.76504557042537,35.05894853704556,-64.1305880881996,35.66336858564586,-63.61174866727061,36.08937067089603,-63.16259233242074,36.38104798707521,-62.78585281780029,36.453825619540446,-62.56278893509124,36.21249467462723,-62.57733688370882,35.62997203715752,-62.84971341894725,34.73629797432679,-63.34499767238391,33.55273967772425,-64.03225558972227,32.040040151701405,-64.93014642287298,30.097798840574626,-66.10436462952698,27.59464553122529,-67.63706805192919,24.392367880485537,-69.60417559015059,20.365771722629447,-72.05254089685035" fill="none" stroke="url(#rainbowGradient)" stroke-width="1.1698211726290477" stroke-linejoin="round" filter="url(#fuzzy)"></polyline><polyline data-v-79cd3a02="" points="41.072771537174724,-57.77232371029919,42.01187375162494,-56.62643303583185,42.37234224909898,-55.88535048407128,42.42418780645428,-55.16753903885828,42.22142577329318,-54.435546647867476,41.73254295125887,-53.77666379102509,40.900308485368434,-53.27792526403891,39.67556908025749,-52.976836956461156,38.02936451721596,-52.869013132481314,35.94994703080296,-52.938977105099816,33.43327395689164,-53.18361850543585,30.473102200821806,-53.61455884225795,27.054943453056744,-54.24391889117726,23.156929878055337,-55.069497956999825,18.75737043427896,-56.07517504942896,13.843813348191928,-57.24946174167161,8.41627927454402,-58.60619068359596,2.481920772739713,-60.18108926524556,-3.9521089815304347,-61.99321531247283,-10.872310991613425,-64.00814881577021,-18.22128356252057,-66.20320682137721" fill="none" stroke="url(#rainbowGradient)" stroke-width="2.497857385408431" stroke-linejoin="round" filter="url(#fuzzy)"></polyline><polyline data-v-79cd3a02="" points="4.462502483257946,-76.91271524916309,5.893371508883575,-76.76290559714015,6.461629715672272,-76.5990706221171,6.709408299693486,-76.33999853353367,6.821425492294715,-75.96179897934482,6.771386329743976,-75.45948475404666,6.455764345599222,-74.83664181242128,5.789485455360291,-74.09769988816306,4.73621312228476,-73.2417879703858,3.291311004555836,-72.26048672723775,1.4568735296060247,-71.13972554474003,-0.76551497613824,-69.86425805421868,-3.3675956499861055,-68.4225628055587,-6.333678943633185,-66.8094861402389,-9.65982709033265,-65.02355292040217,-13.38210458569474,-63.058303026692144,-17.583827186671364,-60.89418423216458,-22.358477392436438,-58.50478767424404,-27.742305138027493,-55.886613016725754,-33.67720078280441,-53.09676975688247,-40.06024433372664,-50.25094124864441" fill="none" stroke="url(#rainbowGradient)" stroke-width="1.2235636586385668" stroke-linejoin="round" filter="url(#fuzzy)"></polyline><polyline data-v-79cd3a02="" points="43.57310082527445,-55.02111515023511,44.12218153435347,-53.73769139007608,44.42561311624853,-52.58015778607762,44.29976617720615,-51.71171573655786,43.68732790866847,-51.13178087864348,42.59134452266148,-50.76663003985631,41.01197866500263,-50.563188416974654,38.93355624743536,-50.51459725251435,36.334333392011324,-50.6454039083637,33.19735248678526,-50.98278500630925,29.513136402578596,-51.53551789509643,25.27358806979744,-52.29428035674002,20.46255656727522,-53.24962479851975,15.05178024737289,-54.407226880883215,9.009455019919043,-55.779967846006855,2.3198096538539517,-57.35959512156086,-5.006023764852399,-59.10089804424025,-12.96765971606868,-60.949140009231996,-21.69518391280128,-62.86167483082522" fill="none" stroke="url(#rainbowGradient)" stroke-width="1.071410874836615" stroke-linejoin="round" filter="url(#fuzzy)"></polyline><polyline data-v-79cd3a02="" points="30.837743684478998,-67.32346103834593,32.279670500416806,-66.27707063958803,33.17470713293927,-65.57474086386915,33.96664683917565,-64.92593204617809,34.76507863494067,-64.25213237362014,35.569586580048366,-63.55136964948354,36.352297388967216,-62.84552969632561,37.08429314260601,-62.16448867697878,37.733885526844944,-61.54605148021242,38.26495000057123,-61.032338073733456,38.64757538947106,-60.656416770252335,38.86862418216804,-60.432273791632106,38.924775817270614,-60.36377767260313,38.802140218930035,-60.46694217738653,38.468905668876005,-60.77814056609772,37.89484650644593,-61.33352579081124,37.05947284984275,-62.15180553768807,35.877388469808025,-63.269102608412275" fill="none" stroke="url(#rainbowGradient)" stroke-width="2.4971483155259007" stroke-linejoin="round" filter="url(#fuzzy)"></polyline><polyline data-v-79cd3a02="" points="50.37585654527842,-43.600506413706,50.44468269612829,-43.31751622083314,50.738895355863654,-42.455581727027166,50.90714258162892,-41.77799820214206,50.89691946671257,-41.404559368299225,50.75203860448745,-41.20238808223553,50.50209447786813,-41.049130914285776,50.136166608085524,-40.92392787764393,49.619021678465195,-40.887820668636635,48.91082922806483,-41.03404770537786,47.976553230006175,-41.44743966575774,46.788312283597996,-42.18083645749538,45.32645041710642,-43.24882425007678,43.58131477062316,-44.637680020833706,41.55487298864243,-46.32489414544047,39.2598386904677,-48.2970892345113,36.71292682181638,-50.55833511917706,33.920851797772514,-53.12879890441898,30.866532432953303,-56.037361533512616,27.51462301259101,-59.308844675722995,23.850962170963136,-62.94702867238303,19.92488823032597,-66.93227745298414,15.788548639925178,-71.28035246273497" fill="none" stroke="url(#rainbowGradient)" stroke-width="1.4413953386290803" stroke-linejoin="round" filter="url(#fuzzy)"></polyline><polyline data-v-79cd3a02="" points="46.38766539197874,-50.557142474089076,47.26975138999141,-49.12618482724564,47.91186137190031,-48.01705725335627,48.48662820190979,-46.96190824013246,48.98516922473247,-46.01831853086273,49.368767044002944,-45.282925939761064,49.61851223697168,-44.78862473385438,49.72692664291493,-44.52739234802435,49.6743953142382,-44.51687423313628,49.41839615623515,-44.83756652079778,48.907586845606914,-45.60368751935236,48.113009257166595,-46.88610242585071,47.04884259269401,-48.65568849146685,45.751795482751334,-50.820877272628756,44.235828728070324,-53.332246158216975" fill="none" stroke="url(#rainbowGradient)" stroke-width="1.3374732652992338" stroke-linejoin="round" filter="url(#fuzzy)"></polyline><polyline data-v-79cd3a02="" points="-13.16738509287461,-74.61490045408084,-12.703791916617945,-74.6563797613389,-11.750301899664809,-74.66773264160582,-10.232122817276611,-74.67883743354376,-8.363512261848529,-74.64917720107864,-6.3425531512963005,-74.54594240975315,-4.227155651288578,-74.36672509774556,-1.9871942557048987,-74.12622574829828,0.4073983883876622,-73.83894473935386,2.945120553640284,-73.51256918244515,5.579739231421245,-73.15156906288277,8.252635569713526,-72.76466442632875,10.907078492579599,-72.37010372421543,13.492722424551172,-71.99473479075955,15.968600381346945,-71.66545852297921,18.308937890223127,-71.39587661695066,20.511241440903614,-71.17625997027368,22.599714347340118,-70.97878513225928,24.558666428736277,-70.79887478677963" fill="none" stroke="url(#rainbowGradient)" stroke-width="1.5550461263425364" stroke-linejoin="round" filter="url(#fuzzy)"></polyline></g><g data-v-79cd3a02="" id="pointNose"><g data-v-79cd3a02="" id="rightNose"><circle data-v-79cd3a02="" r="2.1453743057737755" cx="9.631558634783332" cy="27.106949122923687" stroke="black" fill="none" stroke-width="1.297998904990842" filter="url(#fuzzy)"></circle><circle data-v-79cd3a02="" r="2.041007941292235" cx="7.621839395500338" cy="24.26431951714193" stroke="black" fill="none" stroke-width="1.4025910988362198" filter="url(#fuzzy)"></circle><circle data-v-79cd3a02="" r="1.3903944173849396" cx="6.756945879746112" cy="24.931077046314666" stroke="black" fill="none" stroke-width="1.0954080512403706" filter="url(#fuzzy)"></circle><circle data-v-79cd3a02="" r="2.9388173857713444" cx="6.81794326761797" cy="24.583563712165727" stroke="black" fill="none" stroke-width="1.3141115530803444" filter="url(#fuzzy)"></circle><circle data-v-79cd3a02="" r="1.2037762517781907" cx="8.17338058608979" cy="26.076313276693085" stroke="black" fill="none" stroke-width="1.1768851687567659" filter="url(#fuzzy)"></circle><circle data-v-79cd3a02="" r="2.4734166711732573" cx="7.979496137659039" cy="26.34073872938002" stroke="black" fill="none" stroke-width="1.0718400972417896" filter="url(#fuzzy)"></circle><circle data-v-79cd3a02="" r="1.116439712081291" cx="7.324355421463256" cy="24.153166689026484" stroke="black" fill="none" stroke-width="1.4426304596176274" filter="url(#fuzzy)"></circle><circle data-v-79cd3a02="" r="1.8087040482368613" cx="8.91638788119973" cy="23.93363933010682" stroke="black" fill="none" stroke-width="1.1251410164548719" filter="url(#fuzzy)"></circle><circle data-v-79cd3a02="" r="1.2366755778860536" cx="9.990197721128556" cy="24.301203982078345" stroke="black" fill="none" stroke-width="1.0467023786990608" filter="url(#fuzzy)"></circle><circle data-v-79cd3a02="" r="1.648968071245649" cx="6.890399421376209" cy="25.08805117305639" stroke="black" fill="none" stroke-width="1.3679244506359045" filter="url(#fuzzy)"></circle></g><g data-v-79cd3a02="" id="leftNose"><circle data-v-79cd3a02="" r="2.518787422022071" cx="-5.986756785669609" cy="31.354132781415522" stroke="black" fill="none" stroke-width="1.370655124322365" filter="url(#fuzzy)"></circle><circle data-v-79cd3a02="" r="1.5691168142910565" cx="-6.646388189288042" cy="32.33209917604328" stroke="black" fill="none" stroke-width="1.232901254487752" filter="url(#fuzzy)"></circle><circle data-v-79cd3a02="" r="1.3967335487291037" cx="-5.705068717429239" cy="34.38645268359555" stroke="black" fill="none" stroke-width="1.0417217643978245" filter="url(#fuzzy)"></circle><circle data-v-79cd3a02="" r="1.7314235176376842" cx="-6.428901147103415" cy="32.2504289022443" stroke="black" fill="none" stroke-width="1.3230128526925413" filter="url(#fuzzy)"></circle><circle data-v-79cd3a02="" r="1.1804046389118894" cx="-7.822810756609706" cy="31.027846354909144" stroke="black" fill="none" stroke-width="1.0022006764705336" filter="url(#fuzzy)"></circle><circle data-v-79cd3a02="" r="1.1338582245994577" cx="-7.553835104712548" cy="34.37607782492965" stroke="black" fill="none" stroke-width="1.179722714952986" filter="url(#fuzzy)"></circle><circle data-v-79cd3a02="" r="2.885673628951255" cx="-8.179567446152403" cy="34.46205142032715" stroke="black" fill="none" stroke-width="1.2627778805487928" filter="url(#fuzzy)"></circle><circle data-v-79cd3a02="" r="1.0812407572734957" cx="-7.316069579034686" cy="30.973573776163455" stroke="black" fill="none" stroke-width="1.4961886783386271" filter="url(#fuzzy)"></circle><circle data-v-79cd3a02="" r="2.3358577100609508" cx="-7.787232728680489" cy="33.41900315829986" stroke="black" fill="none" stroke-width="1.392564063680422" filter="url(#fuzzy)"></circle><circle data-v-79cd3a02="" r="1.3715993092969234" cx="-6.984869096378252" cy="31.208098556961886" stroke="black" fill="none" stroke-width="1.0996968189847078" filter="url(#fuzzy)"></circle></g></g><g data-v-79cd3a02="" id="mouth"><polyline data-v-79cd3a02="" points="-60.72842147093873,40.39671159473868,-59.41291701784333,41.80859797814128,-58.0986208645924,43.1964748736809,-56.78559327776749,44.56019651185707,-55.47389452395014,45.89961712316926,-54.16358486972192,47.21459093811698,-52.85472458166438,48.50497218719972,-51.547373926359064,49.77061510091698,-50.24159317038755,51.01137390976829,-48.93744258033137,52.22710284425309,-47.63498242277206,53.41765613487089,-46.334272964291195,54.58288801212121,-45.035374471470334,55.72265270650354,-43.73834721089102,56.836804448517356,-42.44325144913482,57.925197468662184,-41.150147452783266,58.9876859974375,-39.85909548841793,60.02412426534282,-38.570155822620364,61.034366502877624,-37.283388721972095,62.018266940541416,-35.99885445305471,62.97567980883368,-34.71661328244975,63.90645933825394,-33.436725476738765,64.81045975930168,-32.15925130250331,65.68753530247636,-30.884251026324932,66.53754019827754,-29.611784914785197,67.36032867720468,-28.341913234465668,68.1557549697573,-27.074696251947866,68.92367330643485,-25.810194233813363,69.66393791773686,-24.548467446643713,70.37640303416285,-23.28957615702046,71.06092288621227,-22.03358063152517,71.71735170438463,-20.780541136739387,72.34554371917946,-19.53051793924467,72.94535316109622,-18.28357130562257,73.5166342606344,-17.039761502454642,74.05924124829352,-15.799148796322438,74.57302835457308,-14.561793453807507,75.0578498099726,-13.327755741491409,75.5135598449915,-12.097095925955696,75.94001269012934,-10.86987427378192,76.33706257588558,-9.646151051551636,76.70456373275974,-8.425986525846396,77.04237039125132,-7.209440963247751,77.35033678185981,-5.996574630337261,77.6283171350847,-4.787447793696471,77.8761656814255,-3.58212071990694,78.09373665138172,-2.3806536755502217,78.28088427545279,-1.1831069272078674,78.43746278413829,0.01045925853857188,78.56332640793767,1.1999846151075415,78.65832937735043,2.3854088759174807,78.72232592287605,3.5666717743868457,78.75517027501408,4.74371304393408,78.75671666426398,5.916472417977632,78.72681932112526,7.084889629935944,78.66533247609742,8.248904413227462,78.57211035967991,9.408456501270644,78.44700720237229,10.563485627483923,78.28987723467404,11.713931525285751,78.10057468708463,12.859733928094576,77.87895379010358,14.000832569328843,77.62486877423039,15.137167182407,77.33817386996452,16.26867750074749,77.01872330780553,17.395303257768763,76.66637131825286,18.516984186889268,76.28097213180604,19.633660021527444,75.86237997896455,20.745270495101742,75.41044909022789,21.85175534103061,74.92503369609555,22.9530542927325,74.40598802706705,24.04910708362584,73.85316631364186,25.1398534471291,73.2664227863195,26.225233116660714,72.64561167559945,27.305185825639125,71.99058721198122,28.379651307482785,71.30120362596429,29.44856929561014,70.57731514804817,30.511879523439646,69.81877600873236,31.56952172438973,69.02544043851634,32.62143563187885,68.19716266789962,33.66756097932546,67.3337969273817,34.707837500147996,66.43519744746206,35.7422049277649,65.50121845864021,36.770602995594636,64.53171419141563,37.792971437055634,63.52653887628786,38.80924998556635,62.485546743756345,39.81937837454524,61.40859202432062,40.823296337410724,60.295528948480154,41.820943607581256,59.146211746734465,42.812259918475306,57.960494649583026,43.7971850035113,56.73823188752536,44.775658596107675,55.47927769106095,45.74762042968291,54.183486290689295,46.713010237655425,52.850711916909894,47.67176775344369,51.480808800222235,48.62383271046612,50.073631171125825,49.569144842141185,48.62903326012017,50.507643881887326,47.146869297704725,51.439269563122984,45.62699351437903,52.36396161926662,44.06926014064258,53.281659783736664,42.47352340699484,54.19230378995156,40.83963754393534,55.09583337132972,39.167456781963665,54.1923037899515,40.83963754393544,53.28165978373659,42.473523406994936,52.36396161926655,44.06926014064268,51.43926956312291,45.62699351437912,50.50764388188726,47.14686929770482,49.56914484214112,48.629033260120245,48.62383271046605,50.073631171125896,47.67176775344363,51.48080880022232,46.71301023765538,52.85071191690998,45.74762042968286,54.18348629068938,44.775658596107625,55.479277691061014,43.797185003511245,56.73823188752543,42.812259918475256,57.96049464958309,41.8209436075812,59.146211746734515,40.82329633741066,60.29552894848021,39.81937837454517,61.40859202432066,38.8092499855663,62.48554674375641,37.792971437055584,63.52653887628791,36.77060299559458,64.53171419141567,35.742204927764845,65.50121845864025,34.70783750014794,66.4351974474621,33.6675609793254,67.33379692738174,32.621435631878796,68.19716266789968,31.56952172438967,69.02544043851638,30.511879523439596,69.81877600873241,29.448569295610096,70.57731514804821,28.37965130748274,71.30120362596433,27.305185825639075,71.99058721198126,26.225233116660664,72.64561167559951,25.13985344712905,73.26642278631954,24.049107083625795,73.8531663136419,22.95305429273245,74.40598802706708,21.851755341030568,74.9250336960956,20.74527049510169,75.41044909022791,19.633660021527398,75.86237997896457,18.516984186889218,76.28097213180607,17.39530325776871,76.6663713182529,16.268677500747437,77.01872330780556,15.137167182406944,77.33817386996456,14.000832569328786,77.62486877423039,12.859733928094522,77.87895379010362,11.713931525285702,78.10057468708465,10.563485627483871,78.28987723467405,9.408456501270587,78.4470072023723,8.248904413227415,78.57211035967994,7.084889629935887,78.66533247609743,5.916472417977578,78.72681932112528,4.743713043934029,78.756716664264,3.5666717743867906,78.7551702750141,2.38540887591743,78.72232592287605,1.1999846151074873,78.65832937735041,0.010459258538515925,78.56332640793764,-1.1831069272079189,78.43746278413826,-2.3806536755502776,78.28088427545279,-3.582120719906996,78.09373665138169,-4.787447793696531,77.87616568142548,-5.996574630337316,77.6283171350847,-7.209440963247809,77.3503367818598,-8.425986525846453,77.0423703912513,-9.646151051551692,76.70456373275971,-10.86987427378198,76.33706257588554,-12.097095925955756,75.9400126901293,-13.327755741491467,75.51355984499146,-14.561793453807566,75.05784980997255,-15.799148796322491,74.57302835457305,-17.039761502454695,74.0592412482935,-18.28357130562263,73.51663426063436,-19.530517939244728,72.94535316109616,-20.780541136739444,72.3455437191794,-22.033580631525222,71.7173517043846,-23.28957615702052,71.06092288621223,-24.548467446643766,70.3764030341628,-25.81019423381342,69.66393791773682,-27.07469625194792,68.92367330643481,-28.341913234465725,68.15575496975724,-29.61178491478527,67.36032867720463,-30.884251026325003,66.53754019827751,-32.15925130250338,65.68753530247633,-33.436725476738836,64.81045975930162,-34.71661328244982,63.906459338253896,-35.99885445305478,62.97567980883363,-37.28338872197217,62.018266940541366,-38.57015582262043,61.034366502877575,-39.859095488418006,60.02412426534278,-41.150147452783344,58.98768599743745,-42.4432514491349,57.92519746866213,-43.738347210891106,56.8368044485173,-45.03537447147041,55.72265270650347,-46.33427296429127,54.582888012121145,-47.63498242277213,53.417656134870825,-48.937442580331435,52.22710284425301,-50.241593170387624,51.0113739097682,-51.54737392635915,49.77061510091691,-52.85472458166447,48.50497218719965,-54.16358486972201,47.2145909381169,-55.47389452395023,45.89961712316918,-56.785593277767575,44.56019651185698,-58.0986208645925,43.19647487368082,-59.41291701784342,41.80859797814118" fill="rgb(215,127,140)" stroke="black" stroke-width="3.000815565692854" stroke-linejoin="round" filter="url(#fuzzy)"></polyline></g></svg>